<svg width="848" height="2200" xmlns="http://www.w3.org/2000/svg" version="1.1"><g title="Mary" transform="translate(0,0)"><path class="area" d="M0,10.570118429838228L8.313725490196079,10.237026017079199L16.627450980392158,8.468095399861774L24.941176470588236,7.5888247214965965L33.254901960784316,6.00117609849239L41.568627450980394,3.392835639064275L49.88235294117647,2.736403996860613L58.196078431372555,2.1418838661309394L66.50980392156863,1.3936450853374254L74.8235294117647,1.6928133822202955L83.13725490196079,0.8269003244813575L91.45098039215686,0L99.76470588235294,0.5400295196035945L108.078431372549,0.654523410685627L116.39215686274511,0.18488643152506157L124.70588235294117,0.8436503566952087L133.01960784313727,1.7097754401583742L141.33333333333331,0.594944182178125L149.6470588235294,1.7649021284571322L157.9607843137255,2.2385675963779903L166.27450980392157,2.6325113919898797L174.58823529411765,3.4055571825178355L182.90196078431373,4.549860016165496L191.2156862745098,4.244118921831621L199.52941176470588,3.6184310096407284L207.84313725490196,6.386214813686788L216.156862745098,4.560673328101021L224.47058823529412,3.9816310752398465L232.78431372549022,4.561733456722152L241.09803921568627,4.974759567514379L249.41176470588235,4.775879438190401L257.7254901960784,4.500882073869294L266.03921568627453,3.909330303278784L274.3529411764706,3.0561387889934046L282.66666666666663,3.684795061323463L290.98039215686276,5.183392880152752L299.2941176470588,4.163549146625744L307.6078431372549,12.946926798411564L315.921568627451,13.016259210233462L324.235294117647,13.177398760645215L332.54901960784315,12.390783323766794L340.8627450980392,11.290581840758138L349.1764705882353,10.02500029285321L357.4901960784314,6.669057129804257L365.80392156862746,5.07568381224595L374.11764705882354,7.8547049796759865L382.4313725490196,7.392064849414879L390.7450980392157,5.230674616655147L399.05882352941177,6.726728126793725L407.37254901960785,4.883800531821429L415.6862745098039,6.520003045673386L424,7.709891410029637L432.313725490196,11.046116180725573L440.6274509803922,14.340359858024764L448.94117647058823,13.993909824639497L465.56862745098044,15.227899539634754L473.88235294117646,15.133548092354188L473.88235294117646,15.242105263157894L465.56862745098044,15.242105263157894L448.94117647058823,15.242105263157894L440.6274509803922,15.242105263157894L432.313725490196,15.242105263157894L424,15.242105263157894L415.6862745098039,15.242105263157894L407.37254901960785,15.242105263157894L399.05882352941177,15.242105263157894L390.7450980392157,15.242105263157894L382.4313725490196,15.242105263157894L374.11764705882354,15.242105263157894L365.80392156862746,15.242105263157894L357.4901960784314,15.242105263157894L349.1764705882353,15.242105263157894L340.8627450980392,15.242105263157894L332.54901960784315,15.242105263157894L324.235294117647,15.242105263157894L315.921568627451,15.242105263157894L307.6078431372549,15.242105263157894L299.2941176470588,15.242105263157894L290.98039215686276,15.242105263157894L282.66666666666663,15.242105263157894L274.3529411764706,15.242105263157894L266.03921568627453,15.242105263157894L257.7254901960784,15.242105263157894L249.41176470588235,15.242105263157894L241.09803921568627,15.242105263157894L232.78431372549022,15.242105263157894L224.47058823529412,15.242105263157894L216.156862745098,15.242105263157894L207.84313725490196,15.242105263157894L199.52941176470588,15.242105263157894L191.2156862745098,15.242105263157894L182.90196078431373,15.242105263157894L174.58823529411765,15.242105263157894L166.27450980392157,15.242105263157894L157.9607843137255,15.242105263157894L149.6470588235294,15.242105263157894L141.33333333333331,15.242105263157894L133.01960784313727,15.242105263157894L124.70588235294117,15.242105263157894L116.39215686274511,15.242105263157894L108.078431372549,15.242105263157894L99.76470588235294,15.242105263157894L91.45098039215686,15.242105263157894L83.13725490196079,15.242105263157894L74.8235294117647,15.242105263157894L66.50980392156863,15.242105263157894L58.196078431372555,15.242105263157894L49.88235294117647,15.242105263157894L41.568627450980394,15.242105263157894L33.254901960784316,15.242105263157894L24.941176470588236,15.242105263157894L16.627450980392158,15.242105263157894L8.313725490196079,15.242105263157894L0,15.242105263157894Z" style="fill: rgb(191, 105, 105);"></path><text x="842" y="9.242105263157894" style="font-size: 10px; fill: rgb(34, 34, 34); font-family: Arial, Helvetica; text-anchor: end;">Mary</text></g><g title="Linda" transform="translate(0,23.242105263157896)"><path class="area" d="M249.41176470588235,15.20733009987522L257.7254901960784,15.200274269643954L266.03921568627453,14.777932431515252L274.3529411764706,14.88998573542609L282.66666666666663,14.188266619330788L290.98039215686276,14.119892264470653L299.2941176470588,13.645975667270546L307.6078431372549,0L315.921568627451,0.6054574322258706L324.235294117647,1.3589193033504614L332.54901960784315,3.73001425297198L340.8627450980392,6.78182882395288L349.1764705882353,8.951160628151737L357.4901960784314,12.593312995148652L365.80392156862746,14.324175349261623L390.7450980392157,15.230177550147895L407.37254901960785,15.230177550147895L407.37254901960785,15.242105263157894L390.7450980392157,15.242105263157894L365.80392156862746,15.242105263157894L357.4901960784314,15.242105263157894L349.1764705882353,15.242105263157894L340.8627450980392,15.242105263157894L332.54901960784315,15.242105263157894L324.235294117647,15.242105263157894L315.921568627451,15.242105263157894L307.6078431372549,15.242105263157894L299.2941176470588,15.242105263157894L290.98039215686276,15.242105263157894L282.66666666666663,15.242105263157894L274.3529411764706,15.242105263157894L266.03921568627453,15.242105263157894L257.7254901960784,15.242105263157894L249.41176470588235,15.242105263157894Z" style="fill: rgb(191, 110, 105);"></path><text x="842" y="9.242105263157894" style="font-size: 10px; fill: rgb(34, 34, 34); font-family: Arial, Helvetica; text-anchor: end;">Linda</text></g><g title="Debra" transform="translate(0,46.48421052631579)"><path class="area" d="M357.4901960784314,13.122012122749634L365.80392156862746,9.053689827943934L374.11764705882354,1.7763568394002505e-15L382.4313725490196,5.559996738273641L390.7450980392157,11.53063032861893L399.05882352941177,13.767486024408585L399.05882352941177,15.242105263157894L390.7450980392157,15.242105263157894L382.4313725490196,15.242105263157894L374.11764705882354,15.242105263157894L365.80392156862746,15.242105263157894L357.4901960784314,15.242105263157894Z" style="fill: rgb(191, 116, 105);"></path><text x="842" y="9.242105263157894" style="font-size: 10px; fill: rgb(34, 34, 34); font-family: Arial, Helvetica; text-anchor: end;">Debra</text></g><g title="Lisa" transform="translate(0,69.72631578947369)"><path class="area" d="M415.6862745098039,15.225411841974255L424,12.610109189870897L432.313725490196,8.176994143118907L440.6274509803922,2.0183863794762864L448.94117647058823,2.866968622977909L457.2549019607843,1.7763568394002505e-15L465.56862745098044,0.8622404971973268L473.88235294117646,2.2156722661920156L482.19607843137254,3.212471855354428L490.50980392156856,5.086940709777831L498.8235294117647,15.20214222456676L498.8235294117647,15.242105263157894L490.50980392156856,15.242105263157894L482.19607843137254,15.242105263157894L473.88235294117646,15.242105263157894L465.56862745098044,15.242105263157894L457.2549019607843,15.242105263157894L448.94117647058823,15.242105263157894L440.6274509803922,15.242105263157894L432.313725490196,15.242105263157894L424,15.242105263157894L415.6862745098039,15.242105263157894Z" style="fill: rgb(191, 121, 105);"></path><text x="842" y="9.242105263157894" style="font-size: 10px; fill: rgb(34, 34, 34); font-family: Arial, Helvetica; text-anchor: end;">Lisa</text></g><g title="Michelle" transform="translate(0,92.96842105263158)"><path class="area" d="M473.88235294117646,13.354872986883613L482.19607843137254,8.630782002324423L490.50980392156856,0L498.8235294117647,12.629630859483093L507.1372549019608,14.264430793071005L507.1372549019608,15.242105263157894L498.8235294117647,15.242105263157894L490.50980392156856,15.242105263157894L482.19607843137254,15.242105263157894L473.88235294117646,15.242105263157894Z" style="fill: rgb(191, 127, 105);"></path><text x="842" y="9.242105263157894" style="font-size: 10px; fill: rgb(34, 34, 34); font-family: Arial, Helvetica; text-anchor: end;">Michelle</text></g><g title="Jennifer" transform="translate(0,116.21052631578948)"><path class="area" d="M490.50980392156856,15.169645725571177L498.8235294117647,6.2861064174396635L507.1372549019608,2.463382746156425L515.4509803921568,0.24732855496266204L523.7647058823529,0.157478728355132L532.0784313725491,0L540.3921568627451,1.189785607173894L548.7058823529412,0.8767604047992776L557.0196078431372,1.0011492776564754L565.3333333333333,1.641450058131099L573.6470588235294,2.4310174860343583L581.9607843137255,2.373532919548895L590.2745098039215,2.416767110308971L598.5882352941176,2.0414267056097763L606.9019607843137,3.4932743070556302L615.2156862745098,6.986307082319305L623.5294117647059,14.445050349704006L623.5294117647059,15.242105263157894L615.2156862745098,15.242105263157894L606.9019607843137,15.242105263157894L598.5882352941176,15.242105263157894L590.2745098039215,15.242105263157894L581.9607843137255,15.242105263157894L573.6470588235294,15.242105263157894L565.3333333333333,15.242105263157894L557.0196078431372,15.242105263157894L548.7058823529412,15.242105263157894L540.3921568627451,15.242105263157894L532.0784313725491,15.242105263157894L523.7647058823529,15.242105263157894L515.4509803921568,15.242105263157894L507.1372549019608,15.242105263157894L498.8235294117647,15.242105263157894L490.50980392156856,15.242105263157894Z" style="fill: rgb(191, 132, 105);"></path><text x="842" y="9.242105263157894" style="font-size: 10px; fill: rgb(34, 34, 34); font-family: Arial, Helvetica; text-anchor: end;">Jennifer</text></g><g title="Jessica" transform="translate(0,139.45263157894738)"><path class="area" d="M581.9607843137255,14.973195193803582L590.2745098039215,14.73657451364003L598.5882352941176,13.886959960558109L606.9019607843137,14.603885304934243L615.2156862745098,12.78054385906841L623.5294117647059,5.169329400758524L631.843137254902,2.0660163865026497L640.156862745098,0.6700048257083075L648.470588235294,0L656.7843137254902,5.894327092432347L665.0980392156863,4.121437817177082L673.4117647058823,8.55921074408241L681.7254901960785,7.249472395032132L690.0392156862745,9.069282188955224L698.3529411764706,8.968377847734093L706.6666666666667,9.662599715335473L714.9803921568628,12.341105453050387L723.2941176470588,13.423304512647015L731.6078431372549,13.725008492898194L731.6078431372549,15.242105263157894L723.2941176470588,15.242105263157894L714.9803921568628,15.242105263157894L706.6666666666667,15.242105263157894L698.3529411764706,15.242105263157894L690.0392156862745,15.242105263157894L681.7254901960785,15.242105263157894L673.4117647058823,15.242105263157894L665.0980392156863,15.242105263157894L656.7843137254902,15.242105263157894L648.470588235294,15.242105263157894L640.156862745098,15.242105263157894L631.843137254902,15.242105263157894L623.5294117647059,15.242105263157894L615.2156862745098,15.242105263157894L606.9019607843137,15.242105263157894L598.5882352941176,15.242105263157894L590.2745098039215,15.242105263157894L581.9607843137255,15.242105263157894Z" style="fill: rgb(191, 138, 105);"></path><text x="842" y="9.242105263157894" style="font-size: 10px; fill: rgb(34, 34, 34); font-family: Arial, Helvetica; text-anchor: end;">Jessica</text></g><g title="Samantha" transform="translate(0,162.69473684210527)"><path class="area" d="M690.0392156862745,14.637792719684674L698.3529411764706,11.56129249836646L706.6666666666667,10.767750774613747L714.9803921568628,8.68622979153932L723.2941176470588,4.956583689901565L731.6078431372549,0L739.9215686274509,11.799355015492274L739.9215686274509,15.242105263157894L731.6078431372549,15.242105263157894L723.2941176470588,15.242105263157894L714.9803921568628,15.242105263157894L706.6666666666667,15.242105263157894L698.3529411764706,15.242105263157894L690.0392156862745,15.242105263157894Z" style="fill: rgb(191, 143, 105);"></path><text x="842" y="9.242105263157894" style="font-size: 10px; fill: rgb(34, 34, 34); font-family: Arial, Helvetica; text-anchor: end;">Samantha</text></g><g title="Ashley" transform="translate(0,185.93684210526317)"><path class="area" d="M606.9019607843137,13.10727266960576L615.2156862745098,8.83664061991383L623.5294117647059,2.0763374069987357L631.843137254902,1.9970546748106592L640.156862745098,0.8315018253871536L648.470588235294,4.1729789283383205L656.7843137254902,3.013710685734603L665.0980392156863,5.51546763130351L673.4117647058823,0L681.7254901960785,3.0755898913448103L690.0392156862745,3.7011499855604946L698.3529411764706,7.396982226888861L706.6666666666667,10.805656279682363L714.9803921568628,11.816027683786523L723.2941176470588,13.595054845079968L731.6078431372549,15.172007725552582L756.5490196078431,15.059851665384082L781.4901960784314,15.166689981320454L806.4313725490196,15.214066248115769L814.7450980392157,15.219383992347897L814.7450980392157,15.242105263157894L806.4313725490196,15.242105263157894L781.4901960784314,15.242105263157894L756.5490196078431,15.242105263157894L731.6078431372549,15.242105263157894L723.2941176470588,15.242105263157894L714.9803921568628,15.242105263157894L706.6666666666667,15.242105263157894L698.3529411764706,15.242105263157894L690.0392156862745,15.242105263157894L681.7254901960785,15.242105263157894L673.4117647058823,15.242105263157894L665.0980392156863,15.242105263157894L656.7843137254902,15.242105263157894L648.470588235294,15.242105263157894L640.156862745098,15.242105263157894L631.843137254902,15.242105263157894L623.5294117647059,15.242105263157894L615.2156862745098,15.242105263157894L606.9019607843137,15.242105263157894Z" style="fill: rgb(191, 148, 105);"></path><text x="842" y="9.242105263157894" style="font-size: 10px; fill: rgb(34, 34, 34); font-family: Arial, Helvetica; text-anchor: end;">Ashley</text></g><g title="Hannah" transform="translate(0,209.17894736842106)"><path class="area" d="M714.9803921568628,11.533379283725289L723.2941176470588,6.110016266438752L731.6078431372549,6.235769623114884L739.9215686274509,2.9302528190565447L748.2352941176471,0L756.5490196078431,10.49341898486394L764.8627450980392,15.098387141242315L773.1764705882352,15.130324501668L773.1764705882352,15.242105263157894L764.8627450980392,15.242105263157894L756.5490196078431,15.242105263157894L748.2352941176471,15.242105263157894L739.9215686274509,15.242105263157894L731.6078431372549,15.242105263157894L723.2941176470588,15.242105263157894L714.9803921568628,15.242105263157894Z" style="fill: rgb(191, 154, 105);"></path><text x="842" y="9.242105263157894" style="font-size: 10px; fill: rgb(34, 34, 34); font-family: Arial, Helvetica; text-anchor: end;">Hannah</text></g><g title="Emily" transform="translate(0,232.42105263157896)"><path class="area" d="M690.0392156862745,14.597478368089188L698.3529411764706,12.240097346971261L706.6666666666667,9.016181505694313L714.9803921568628,6.59316574616939L723.2941176470588,4.843687421249593L731.6078431372549,3.3270561444879423L739.9215686274509,0L748.2352941176471,1.45177790428807L756.5490196078431,2.6566441736164865L764.8627450980392,3.895109178081821L773.1764705882352,2.576163482474577L781.4901960784314,3.622412467319423L789.8039215686275,3.344246195023109L798.1176470588235,9.25449811538638L806.4313725490196,11.254794904932911L814.7450980392157,13.66687154139L814.7450980392157,15.242105263157894L806.4313725490196,15.242105263157894L798.1176470588235,15.242105263157894L789.8039215686275,15.242105263157894L781.4901960784314,15.242105263157894L773.1764705882352,15.242105263157894L764.8627450980392,15.242105263157894L756.5490196078431,15.242105263157894L748.2352941176471,15.242105263157894L739.9215686274509,15.242105263157894L731.6078431372549,15.242105263157894L723.2941176470588,15.242105263157894L714.9803921568628,15.242105263157894L706.6666666666667,15.242105263157894L698.3529411764706,15.242105263157894L690.0392156862745,15.242105263157894Z" style="fill: rgb(191, 159, 105);"></path><text x="842" y="9.242105263157894" style="font-size: 10px; fill: rgb(34, 34, 34); font-family: Arial, Helvetica; text-anchor: end;">Emily</text></g><g title="Madison" transform="translate(0,255.66315789473686)"><path class="area" d="M714.9803921568628,13.992776354938599L723.2941176470588,14.819322997964244L731.6078431372549,14.140530710594511L739.9215686274509,13.943037264915816L748.2352941176471,12.462567879531827L756.5490196078431,4.0303292062577984L764.8627450980392,1.7763568394002505e-15L773.1764705882352,10.29306580589106L781.4901960784314,9.909782229833148L789.8039215686275,11.581893403246093L798.1176470588235,7.4828072196038615L806.4313725490196,9.034959411197155L814.7450980392157,11.43706487641505L823.0588235294117,13.454423851162602L831.3725490196078,14.449205651618248L839.686274509804,14.642310354059637L839.686274509804,15.242105263157894L831.3725490196078,15.242105263157894L823.0588235294117,15.242105263157894L814.7450980392157,15.242105263157894L806.4313725490196,15.242105263157894L798.1176470588235,15.242105263157894L789.8039215686275,15.242105263157894L781.4901960784314,15.242105263157894L773.1764705882352,15.242105263157894L764.8627450980392,15.242105263157894L756.5490196078431,15.242105263157894L748.2352941176471,15.242105263157894L739.9215686274509,15.242105263157894L731.6078431372549,15.242105263157894L723.2941176470588,15.242105263157894L714.9803921568628,15.242105263157894Z" style="fill: rgb(191, 165, 105);"></path><text x="842" y="9.242105263157894" style="font-size: 10px; fill: rgb(34, 34, 34); font-family: Arial, Helvetica; text-anchor: end;">Madison</text></g><g title="Emma" transform="translate(0,278.90526315789475)"><path class="area" d="M764.8627450980392,13.52829545834122L773.1764705882352,2.5699085878436296L781.4901960784314,2.429643815483283L789.8039215686275,4.478799282954585L798.1176470588235,7.862888445993342L806.4313725490196,11.02610089853362L814.7450980392157,8.333662164720028L823.0588235294117,9.072067518065314L831.3725490196078,12.490013695122087L839.686274509804,7.043871154509926L848,0L848,15.242105263157894L839.686274509804,15.242105263157894L831.3725490196078,15.242105263157894L823.0588235294117,15.242105263157894L814.7450980392157,15.242105263157894L806.4313725490196,15.242105263157894L798.1176470588235,15.242105263157894L789.8039215686275,15.242105263157894L781.4901960784314,15.242105263157894L773.1764705882352,15.242105263157894L764.8627450980392,15.242105263157894Z" style="fill: rgb(191, 170, 105);"></path><text x="842" y="9.242105263157894" style="font-size: 10px; fill: rgb(34, 34, 34); font-family: Arial, Helvetica; text-anchor: end;">Emma</text></g><g title="Isabella" transform="translate(0,302.14736842105265)"><path class="area" d="M798.1176470588235,12.466591836986419L806.4313725490196,10.107226820273087L814.7450980392157,8.61320044897808L823.0588235294117,1.8682027308721754L831.3725490196078,0L839.686274509804,13.701641730292453L848,13.832916013962725L848,15.242105263157894L839.686274509804,15.242105263157894L831.3725490196078,15.242105263157894L823.0588235294117,15.242105263157894L814.7450980392157,15.242105263157894L806.4313725490196,15.242105263157894L798.1176470588235,15.242105263157894Z" style="fill: rgb(191, 175, 105);"></path><text x="842" y="9.242105263157894" style="font-size: 10px; fill: rgb(34, 34, 34); font-family: Arial, Helvetica; text-anchor: end;">Isabella</text></g><g title="Sophia" transform="translate(0,325.38947368421054)"><path class="area" d="M781.4901960784314,15.184067215960008L789.8039215686275,15.186257330948608L806.4313725490196,15.074561466530035L823.0588235294117,15.195017790903005L831.3725490196078,12.553739114652064L839.686274509804,0L848,1.4126241676466478L848,15.242105263157894L839.686274509804,15.242105263157894L831.3725490196078,15.242105263157894L823.0588235294117,15.242105263157894L806.4313725490196,15.242105263157894L789.8039215686275,15.242105263157894L781.4901960784314,15.242105263157894Z" style="fill: rgb(191, 181, 105);"></path><text x="842" y="9.242105263157894" style="font-size: 10px; fill: rgb(34, 34, 34); font-family: Arial, Helvetica; text-anchor: end;">Sophia</text></g><g title="Olivia" transform="translate(0,348.63157894736844)"><path class="area" d="M789.8039215686275,13.067201440615534L806.4313725490196,10.536727510845543L814.7450980392157,0L823.0588235294117,0.4681673078497166L831.3725490196078,9.07296390275845L839.686274509804,5.778014242449046L848,14.554669722517803L848,15.242105263157894L839.686274509804,15.242105263157894L831.3725490196078,15.242105263157894L823.0588235294117,15.242105263157894L814.7450980392157,15.242105263157894L806.4313725490196,15.242105263157894L789.8039215686275,15.242105263157894Z" style="fill: rgb(191, 186, 105);"></path><text x="842" y="9.242105263157894" style="font-size: 10px; fill: rgb(34, 34, 34); font-family: Arial, Helvetica; text-anchor: end;">Olivia</text></g><g title="John" transform="translate(0,371.87368421052633)"><path class="area" d="M0,11.896969862582118L8.313725490196079,11.269466032916638L16.627450980392158,7.697163073826949L24.941176470588236,6.005975081857594L33.254901960784316,3.2408617671595525L41.568627450980394,0.6354174536301045L49.88235294117647,0L58.196078431372555,0.8500163152590279L66.50980392156863,1.1428204019501162L74.8235294117647,3.7319719602582797L83.13725490196079,5.432935605360406L91.45098039215686,5.705722878493916L99.76470588235294,5.990147833928344L108.078431372549,5.2532497906342375L116.39215686274511,5.704326356617807L124.70588235294117,6.0497327673090435L133.01960784313727,6.28900351541591L141.33333333333331,6.102335091309191L149.6470588235294,7.3191711526931424L157.9607843137255,6.761027909541131L166.27450980392157,8.062120790783727L174.58823529411765,11.687026073873565L182.90196078431373,10.061474610081383L191.2156862745098,9.331559176167826L199.52941176470588,12.837760099788303L207.84313725490196,15.024713357776752L216.156862745098,14.875751024325005L232.78431372549022,15.218364391264021L241.09803921568627,14.884595662873704L249.41176470588235,15.00236900775899L257.7254901960784,12.086431330441059L266.03921568627453,11.693543175962077L274.3529411764706,11.832729856281052L282.66666666666663,11.993795379325753L290.98039215686276,11.405859669483393L299.2941176470588,10.749959895003673L307.6078431372549,10.145731429940028L315.921568627451,10.41526015202928L324.235294117647,10.624738433445799L332.54901960784315,10.946403972243163L340.8627450980392,11.197777909942985L349.1764705882353,11.419359380952457L357.4901960784314,11.323464878792896L365.80392156862746,11.188933271394287L374.11764705882354,10.521861321905686L382.4313725490196,10.528843931286236L390.7450980392157,10.381743627002638L399.05882352941177,9.268715691742871L407.37254901960785,4.378096081605229L415.6862745098039,8.703124331918271L424,9.002911027989912L432.313725490196,7.819125984340566L440.6274509803922,8.242272112801933L448.94117647058823,1.4682099990837738L457.2549019607843,15.058229882803396L482.19607843137254,15.173210183936462L507.1372549019608,15.178796271440902L748.2352941176471,15.189502939157746L748.2352941176471,15.242105263157894L507.1372549019608,15.242105263157894L482.19607843137254,15.242105263157894L457.2549019607843,15.242105263157894L448.94117647058823,15.242105263157894L440.6274509803922,15.242105263157894L432.313725490196,15.242105263157894L424,15.242105263157894L415.6862745098039,15.242105263157894L407.37254901960785,15.242105263157894L399.05882352941177,15.242105263157894L390.7450980392157,15.242105263157894L382.4313725490196,15.242105263157894L374.11764705882354,15.242105263157894L365.80392156862746,15.242105263157894L357.4901960784314,15.242105263157894L349.1764705882353,15.242105263157894L340.8627450980392,15.242105263157894L332.54901960784315,15.242105263157894L324.235294117647,15.242105263157894L315.921568627451,15.242105263157894L307.6078431372549,15.242105263157894L299.2941176470588,15.242105263157894L290.98039215686276,15.242105263157894L282.66666666666663,15.242105263157894L274.3529411764706,15.242105263157894L266.03921568627453,15.242105263157894L257.7254901960784,15.242105263157894L249.41176470588235,15.242105263157894L241.09803921568627,15.242105263157894L232.78431372549022,15.242105263157894L216.156862745098,15.242105263157894L207.84313725490196,15.242105263157894L199.52941176470588,15.242105263157894L191.2156862745098,15.242105263157894L182.90196078431373,15.242105263157894L174.58823529411765,15.242105263157894L166.27450980392157,15.242105263157894L157.9607843137255,15.242105263157894L149.6470588235294,15.242105263157894L141.33333333333331,15.242105263157894L133.01960784313727,15.242105263157894L124.70588235294117,15.242105263157894L116.39215686274511,15.242105263157894L108.078431372549,15.242105263157894L99.76470588235294,15.242105263157894L91.45098039215686,15.242105263157894L83.13725490196079,15.242105263157894L74.8235294117647,15.242105263157894L66.50980392156863,15.242105263157894L58.196078431372555,15.242105263157894L49.88235294117647,15.242105263157894L41.568627450980394,15.242105263157894L33.254901960784316,15.242105263157894L24.941176470588236,15.242105263157894L16.627450980392158,15.242105263157894L8.313725490196079,15.242105263157894L0,15.242105263157894Z" style="fill: rgb(190, 191, 105);"></path><text x="842" y="9.242105263157894" style="font-size: 10px; fill: rgb(34, 34, 34); font-family: Arial, Helvetica; text-anchor: end;">John</text></g><g title="Robert" transform="translate(0,395.11578947368423)"><path class="area" d="M16.627450980392158,15.203486780693565L33.254901960784316,15.180451194662211L41.568627450980394,14.717029405090269L49.88235294117647,14.167901685136965L58.196078431372555,12.785766523255731L66.50980392156863,11.854180323458332L74.8235294117647,10.647522125757117L83.13725490196079,7.677625320803007L91.45098039215686,6.872396085559945L99.76470588235294,6.716567121230199L108.078431372549,5.757202714747931L116.39215686274511,5.005497341165956L124.70588235294117,4.991269479205414L133.01960784313727,5.103737340417318L141.33333333333331,5.250419822058145L149.6470588235294,4.633201619865105L157.9607843137255,5.562416509335748L166.27450980392157,4.321204932587502L174.58823529411765,2.449224808921892L182.90196078431373,4.286990312158579L191.2156862745098,5.933357196164165L199.52941176470588,3.2246432857714353L207.84313725490196,1.2669572317244633L216.156862745098,0.6636281328738569L224.47058823529412,0L232.78431372549022,0.0013550344724322372L241.09803921568627,1.9475232955037267L249.41176470588235,1.7991470207723594L257.7254901960784,4.829342859749721L266.03921568627453,3.481083559679302L274.3529411764706,3.117595562449262L282.66666666666663,3.8428777638188016L290.98039215686276,4.174522450946675L299.2941176470588,1.6378979185528824L307.6078431372549,0.5023790306543798L315.921568627451,2.0711701911132003L324.235294117647,2.4207690850008063L332.54901960784315,4.241935415950197L340.8627450980392,2.998013770257085L349.1764705882353,7.887316905411949L357.4901960784314,8.991331241826394L365.80392156862746,9.467625858886446L374.11764705882354,10.207813439452746L382.4313725490196,13.230895347449835L390.7450980392157,13.855904997859364L399.05882352941177,15.036140023348143L415.6862745098039,15.19535657385897L415.6862745098039,15.242105263157894L399.05882352941177,15.242105263157894L390.7450980392157,15.242105263157894L382.4313725490196,15.242105263157894L374.11764705882354,15.242105263157894L365.80392156862746,15.242105263157894L357.4901960784314,15.242105263157894L349.1764705882353,15.242105263157894L340.8627450980392,15.242105263157894L332.54901960784315,15.242105263157894L324.235294117647,15.242105263157894L315.921568627451,15.242105263157894L307.6078431372549,15.242105263157894L299.2941176470588,15.242105263157894L290.98039215686276,15.242105263157894L282.66666666666663,15.242105263157894L274.3529411764706,15.242105263157894L266.03921568627453,15.242105263157894L257.7254901960784,15.242105263157894L249.41176470588235,15.242105263157894L241.09803921568627,15.242105263157894L232.78431372549022,15.242105263157894L224.47058823529412,15.242105263157894L216.156862745098,15.242105263157894L207.84313725490196,15.242105263157894L199.52941176470588,15.242105263157894L191.2156862745098,15.242105263157894L182.90196078431373,15.242105263157894L174.58823529411765,15.242105263157894L166.27450980392157,15.242105263157894L157.9607843137255,15.242105263157894L149.6470588235294,15.242105263157894L141.33333333333331,15.242105263157894L133.01960784313727,15.242105263157894L124.70588235294117,15.242105263157894L116.39215686274511,15.242105263157894L108.078431372549,15.242105263157894L99.76470588235294,15.242105263157894L91.45098039215686,15.242105263157894L83.13725490196079,15.242105263157894L74.8235294117647,15.242105263157894L66.50980392156863,15.242105263157894L58.196078431372555,15.242105263157894L49.88235294117647,15.242105263157894L41.568627450980394,15.242105263157894L33.254901960784316,15.242105263157894L16.627450980392158,15.242105263157894Z" style="fill: rgb(184, 191, 105);"></path><text x="842" y="9.242105263157894" style="font-size: 10px; fill: rgb(34, 34, 34); font-family: Arial, Helvetica; text-anchor: end;">Robert</text></g><g title="James" transform="translate(0,418.3578947368421)"><path class="area" d="M0,13.868806376532003L8.313725490196079,13.792594367492303L16.627450980392158,12.872712452935291L24.941176470588236,12.539396117679946L33.254901960784316,11.289459860472402L41.568627450980394,10.477816791438702L49.88235294117647,10.226643360868172L58.196078431372555,9.718365604081995L66.50980392156863,9.199412235134616L74.8235294117647,8.59327470020408L83.13725490196079,7.869112341935795L91.45098039215686,7.580870813583307L99.76470588235294,7.103433714151718L108.078431372549,7.811286109395943L116.39215686274511,7.247257933545706L124.70588235294117,7.429632974632928L133.01960784313727,7.376848003391424L141.33333333333331,7.458694363293982L149.6470588235294,7.695337099533986L157.9607843137255,7.884532670613088L166.27450980392157,7.839161318927974L174.58823529411765,8.27389596971475L182.90196078431373,8.00226094916858L191.2156862745098,8.286943940133998L199.52941176470588,7.880084498879253L207.84313725490196,7.827002982855493L216.156862745098,8.049115024764971L224.47058823529412,7.337111002569167L232.78431372549022,7.158294498869012L241.09803921568627,6.426125431479827L249.41176470588235,6.203716844788092L257.7254901960784,3.854192534976617L266.03921568627453,2.326690361577791L274.3529411764706,1.4174840591819837L282.66666666666663,2.1030955957570328L290.98039215686276,2.7264327280584L299.2941176470588,0.902089227621671L307.6078431372549,0L315.921568627451,0.7333552465182098L324.235294117647,1.151779934280924L332.54901960784315,1.6387064667446936L340.8627450980392,4.704682970485807L349.1764705882353,3.942562880088799L357.4901960784314,6.523392120059677L365.80392156862746,6.677891951614868L374.11764705882354,8.466056988616408L382.4313725490196,8.353963060923775L390.7450980392157,8.964252222805891L399.05882352941177,9.714807066694927L407.37254901960785,9.441392777455224L415.6862745098039,9.874941249112977L424,9.88769267474997L432.313725490196,10.121073418385162L440.6274509803922,9.865451816080796L448.94117647058823,9.806439404411922L457.2549019607843,10.782071738032995L465.56862745098044,10.354454162020353L473.88235294117646,11.66963027132414L482.19607843137254,11.73160813081557L490.50980392156856,11.799813430734368L498.8235294117647,12.932911043733187L507.1372549019608,13.477070719172296L515.4509803921568,14.292272325593064L523.7647058823529,14.120572896667046L532.0784313725491,14.96720825000691L548.7058823529412,14.776233410234276L557.0196078431372,14.781571216314877L565.3333333333333,14.141034486642685L573.6470588235294,14.772378328064953L581.9607843137255,14.371153237673065L590.2745098039215,14.806184433242096L690.0392156862745,14.922726532668564L698.3529411764706,15.121708081562103L706.6666666666667,15.124970074166914L731.6078431372549,15.128528611553982L798.1176470588235,15.222236762746766L806.4313725490196,15.230836561432179L814.7450980392157,15.210078426674285L831.3725490196078,15.231429650996692L848,15.226981479262856L848,15.242105263157894L831.3725490196078,15.242105263157894L814.7450980392157,15.242105263157894L806.4313725490196,15.242105263157894L798.1176470588235,15.242105263157894L731.6078431372549,15.242105263157894L706.6666666666667,15.242105263157894L698.3529411764706,15.242105263157894L690.0392156862745,15.242105263157894L590.2745098039215,15.242105263157894L581.9607843137255,15.242105263157894L573.6470588235294,15.242105263157894L565.3333333333333,15.242105263157894L557.0196078431372,15.242105263157894L548.7058823529412,15.242105263157894L532.0784313725491,15.242105263157894L523.7647058823529,15.242105263157894L515.4509803921568,15.242105263157894L507.1372549019608,15.242105263157894L498.8235294117647,15.242105263157894L490.50980392156856,15.242105263157894L482.19607843137254,15.242105263157894L473.88235294117646,15.242105263157894L465.56862745098044,15.242105263157894L457.2549019607843,15.242105263157894L448.94117647058823,15.242105263157894L440.6274509803922,15.242105263157894L432.313725490196,15.242105263157894L424,15.242105263157894L415.6862745098039,15.242105263157894L407.37254901960785,15.242105263157894L399.05882352941177,15.242105263157894L390.7450980392157,15.242105263157894L382.4313725490196,15.242105263157894L374.11764705882354,15.242105263157894L365.80392156862746,15.242105263157894L357.4901960784314,15.242105263157894L349.1764705882353,15.242105263157894L340.8627450980392,15.242105263157894L332.54901960784315,15.242105263157894L324.235294117647,15.242105263157894L315.921568627451,15.242105263157894L307.6078431372549,15.242105263157894L299.2941176470588,15.242105263157894L290.98039215686276,15.242105263157894L282.66666666666663,15.242105263157894L274.3529411764706,15.242105263157894L266.03921568627453,15.242105263157894L257.7254901960784,15.242105263157894L249.41176470588235,15.242105263157894L241.09803921568627,15.242105263157894L232.78431372549022,15.242105263157894L224.47058823529412,15.242105263157894L216.156862745098,15.242105263157894L207.84313725490196,15.242105263157894L199.52941176470588,15.242105263157894L191.2156862745098,15.242105263157894L182.90196078431373,15.242105263157894L174.58823529411765,15.242105263157894L166.27450980392157,15.242105263157894L157.9607843137255,15.242105263157894L149.6470588235294,15.242105263157894L141.33333333333331,15.242105263157894L133.01960784313727,15.242105263157894L124.70588235294117,15.242105263157894L116.39215686274511,15.242105263157894L108.078431372549,15.242105263157894L99.76470588235294,15.242105263157894L91.45098039215686,15.242105263157894L83.13725490196079,15.242105263157894L74.8235294117647,15.242105263157894L66.50980392156863,15.242105263157894L58.196078431372555,15.242105263157894L49.88235294117647,15.242105263157894L41.568627450980394,15.242105263157894L33.254901960784316,15.242105263157894L24.941176470588236,15.242105263157894L16.627450980392158,15.242105263157894L8.313725490196079,15.242105263157894L0,15.242105263157894Z" style="fill: rgb(179, 191, 105);"></path><text x="842" y="9.242105263157894" style="font-size: 10px; fill: rgb(34, 34, 34); font-family: Arial, Helvetica; text-anchor: end;">James</text></g><g title="David" transform="translate(0,441.6)"><path class="area" d="M266.03921568627453,15.134838792486965L307.6078431372549,15.089524903886705L315.921568627451,15.106517612111803L324.235294117647,14.74329847380034L332.54901960784315,14.270334761535123L340.8627450980392,14.529827576722552L349.1764705882353,14.185725235164323L357.4901960784314,13.746392924594613L365.80392156862746,13.888352841225116L374.11764705882354,5.256057062875515L382.4313725490196,11.449191181414225L390.7450980392157,11.060836995519807L399.05882352941177,8.696018434193718L407.37254901960785,1.5410262271635435L415.6862745098039,1.7763568394002505e-15L424,0.38268994981938853L432.313725490196,2.2614462529567447L440.6274509803922,8.308018263053988L448.94117647058823,10.140398633327017L457.2549019607843,13.857553557567126L465.56862745098044,13.563721311174813L473.88235294117646,15.195729330293565L498.8235294117647,15.050583280870857L498.8235294117647,15.242105263157894L473.88235294117646,15.242105263157894L465.56862745098044,15.242105263157894L457.2549019607843,15.242105263157894L448.94117647058823,15.242105263157894L440.6274509803922,15.242105263157894L432.313725490196,15.242105263157894L424,15.242105263157894L415.6862745098039,15.242105263157894L407.37254901960785,15.242105263157894L399.05882352941177,15.242105263157894L390.7450980392157,15.242105263157894L382.4313725490196,15.242105263157894L374.11764705882354,15.242105263157894L365.80392156862746,15.242105263157894L357.4901960784314,15.242105263157894L349.1764705882353,15.242105263157894L340.8627450980392,15.242105263157894L332.54901960784315,15.242105263157894L324.235294117647,15.242105263157894L315.921568627451,15.242105263157894L307.6078431372549,15.242105263157894L266.03921568627453,15.242105263157894Z" style="fill: rgb(174, 191, 105);"></path><text x="842" y="9.242105263157894" style="font-size: 10px; fill: rgb(34, 34, 34); font-family: Arial, Helvetica; text-anchor: end;">David</text></g><g title="Michael" transform="translate(0,464.8421052631579)"><path class="area" d="M315.921568627451,15.198123555120567L324.235294117647,15.193236698671976L332.54901960784315,14.140021396871466L340.8627450980392,12.110803125158197L349.1764705882353,9.56377354415214L357.4901960784314,7.37211616408768L365.80392156862746,6.655703008724117L374.11764705882354,10.209620492398034L382.4313725490196,5.347393800307117L390.7450980392157,4.748460673967701L399.05882352941177,6.153138691550936L407.37254901960785,12.559807495654814L415.6862745098039,11.324605659708746L424,10.963173756770896L432.313725490196,10.90550885067751L440.6274509803922,7.831480670255311L448.94117647058823,9.831573277534972L457.2549019607843,2.3886954320716836L465.56862745098044,3.1144913518165396L473.88235294117646,1.1288638396247102L482.19607843137254,1.2469302914226894L490.50980392156856,0.6247357283879786L498.8235294117647,0L507.1372549019608,1.188483488297532L515.4509803921568,2.6715466833161763L523.7647058823529,4.317439935201904L532.0784313725491,4.186667656637585L540.3921568627451,3.6248746393074693L548.7058823529412,4.074465432577918L557.0196078431372,4.6391905637771895L565.3333333333333,3.7261303049222914L573.6470588235294,3.4190402456927824L581.9607843137255,3.5021168053188436L590.2745098039215,3.0515486407586785L598.5882352941176,6.009269637704392L606.9019607843137,6.253612460133983L615.2156862745098,6.811886940821113L623.5294117647059,6.878739137037849L631.843137254902,6.348808423752553L640.156862745098,5.882211370041006L648.470588235294,5.793075108418691L656.7843137254902,5.4637009837836L665.0980392156863,4.716011947149051L673.4117647058823,5.28484203776514L681.7254901960785,6.3836028416665265L690.0392156862745,7.975349724101854L698.3529411764706,10.855076492128042L706.6666666666667,11.079285465989436L714.9803921568628,12.026162771468588L723.2941176470588,12.4876774944736L731.6078431372549,12.455619716170837L739.9215686274509,13.091692951519548L748.2352941176471,13.477168188184471L756.5490196078431,13.239862439040852L764.8627450980392,13.390768566173367L773.1764705882352,13.58937041224414L781.4901960784314,13.389009297851874L789.8039215686275,14.364034896474916L798.1176470588235,14.596062840654055L806.4313725490196,14.285063296265673L814.7450980392157,14.38182305394779L823.0588235294117,14.454734952160779L831.3725490196078,14.585311756467153L839.686274509804,14.810107153102377L848,14.834150486829449L848,15.242105263157894L839.686274509804,15.242105263157894L831.3725490196078,15.242105263157894L823.0588235294117,15.242105263157894L814.7450980392157,15.242105263157894L806.4313725490196,15.242105263157894L798.1176470588235,15.242105263157894L789.8039215686275,15.242105263157894L781.4901960784314,15.242105263157894L773.1764705882352,15.242105263157894L764.8627450980392,15.242105263157894L756.5490196078431,15.242105263157894L748.2352941176471,15.242105263157894L739.9215686274509,15.242105263157894L731.6078431372549,15.242105263157894L723.2941176470588,15.242105263157894L714.9803921568628,15.242105263157894L706.6666666666667,15.242105263157894L698.3529411764706,15.242105263157894L690.0392156862745,15.242105263157894L681.7254901960785,15.242105263157894L673.4117647058823,15.242105263157894L665.0980392156863,15.242105263157894L656.7843137254902,15.242105263157894L648.470588235294,15.242105263157894L640.156862745098,15.242105263157894L631.843137254902,15.242105263157894L623.5294117647059,15.242105263157894L615.2156862745098,15.242105263157894L606.9019607843137,15.242105263157894L598.5882352941176,15.242105263157894L590.2745098039215,15.242105263157894L581.9607843137255,15.242105263157894L573.6470588235294,15.242105263157894L565.3333333333333,15.242105263157894L557.0196078431372,15.242105263157894L548.7058823529412,15.242105263157894L540.3921568627451,15.242105263157894L532.0784313725491,15.242105263157894L523.7647058823529,15.242105263157894L515.4509803921568,15.242105263157894L507.1372549019608,15.242105263157894L498.8235294117647,15.242105263157894L490.50980392156856,15.242105263157894L482.19607843137254,15.242105263157894L473.88235294117646,15.242105263157894L465.56862745098044,15.242105263157894L457.2549019607843,15.242105263157894L448.94117647058823,15.242105263157894L440.6274509803922,15.242105263157894L432.313725490196,15.242105263157894L424,15.242105263157894L415.6862745098039,15.242105263157894L407.37254901960785,15.242105263157894L399.05882352941177,15.242105263157894L390.7450980392157,15.242105263157894L382.4313725490196,15.242105263157894L374.11764705882354,15.242105263157894L365.80392156862746,15.242105263157894L357.4901960784314,15.242105263157894L349.1764705882353,15.242105263157894L340.8627450980392,15.242105263157894L332.54901960784315,15.242105263157894L324.235294117647,15.242105263157894L315.921568627451,15.242105263157894Z" style="fill: rgb(168, 191, 105);"></path><text x="842" y="9.242105263157894" style="font-size: 10px; fill: rgb(34, 34, 34); font-family: Arial, Helvetica; text-anchor: end;">Michael</text></g><g title="Jason" transform="translate(0,488.0842105263158)"><path class="area" d="M507.1372549019608,14.941214766986091L515.4509803921568,10.271600886482918L523.7647058823529,4.865902959550871L532.0784313725491,1.3443219163727314L540.3921568627451,2.098485220082315L548.7058823529412,3.342079845891096L557.0196078431372,0L565.3333333333333,9.038337264834542L573.6470588235294,12.132473010875914L581.9607843137255,12.940874086427625L581.9607843137255,15.242105263157894L573.6470588235294,15.242105263157894L565.3333333333333,15.242105263157894L557.0196078431372,15.242105263157894L548.7058823529412,15.242105263157894L540.3921568627451,15.242105263157894L532.0784313725491,15.242105263157894L523.7647058823529,15.242105263157894L515.4509803921568,15.242105263157894L507.1372549019608,15.242105263157894Z" style="fill: rgb(163, 191, 105);"></path><text x="842" y="9.242105263157894" style="font-size: 10px; fill: rgb(34, 34, 34); font-family: Arial, Helvetica; text-anchor: end;">Jason</text></g><g title="Christopher" transform="translate(0,511.3263157894737)"><path class="area" d="M515.4509803921568,14.842915084394164L523.7647058823529,14.458169287098858L532.0784313725491,14.46539147783307L557.0196078431372,14.572411213258215L565.3333333333333,15.164630853463617L573.6470588235294,13.404386002697892L581.9607843137255,13.530446059149597L590.2745098039215,14.601299976195063L598.5882352941176,2.167970345851707L606.9019607843137,1.8219617534035386L615.2156862745098,0L623.5294117647059,1.850193953546368L631.843137254902,2.9545325730868193L640.156862745098,4.949826904111452L648.470588235294,7.583300270922837L656.7843137254902,7.639108108414478L665.0980392156863,10.1274810977476L673.4117647058823,10.941618962331523L681.7254901960785,10.690811975016153L690.0392156862745,11.422879490347665L698.3529411764706,10.617276942085992L706.6666666666667,13.762212725438406L714.9803921568628,13.856757767777186L723.2941176470588,13.865949646893455L723.2941176470588,15.242105263157894L714.9803921568628,15.242105263157894L706.6666666666667,15.242105263157894L698.3529411764706,15.242105263157894L690.0392156862745,15.242105263157894L681.7254901960785,15.242105263157894L673.4117647058823,15.242105263157894L665.0980392156863,15.242105263157894L656.7843137254902,15.242105263157894L648.470588235294,15.242105263157894L640.156862745098,15.242105263157894L631.843137254902,15.242105263157894L623.5294117647059,15.242105263157894L615.2156862745098,15.242105263157894L606.9019607843137,15.242105263157894L598.5882352941176,15.242105263157894L590.2745098039215,15.242105263157894L581.9607843137255,15.242105263157894L573.6470588235294,15.242105263157894L565.3333333333333,15.242105263157894L557.0196078431372,15.242105263157894L532.0784313725491,15.242105263157894L523.7647058823529,15.242105263157894L515.4509803921568,15.242105263157894Z" style="fill: rgb(157, 191, 105);"></path><text x="842" y="9.242105263157894" style="font-size: 10px; fill: rgb(34, 34, 34); font-family: Arial, Helvetica; text-anchor: end;">Christopher</text></g><g title="Jacob" transform="translate(0,534.5684210526316)"><path class="area" d="M665.0980392156863,14.797847661762036L673.4117647058823,14.534175688414495L681.7254901960785,14.622348952813672L690.0392156862745,12.6672763787319L698.3529411764706,9.395539577612404L706.6666666666667,6.772384961736858L714.9803921568628,5.325156477800354L723.2941176470588,2.735066836074502L731.6078431372549,0.5468438032449026L739.9215686274509,0L748.2352941176471,0.3170846238970437L756.5490196078431,1.67105292433442L764.8627450980392,4.707943627006106L773.1764705882352,4.567205531907419L781.4901960784314,7.558313962679533L789.8039215686275,8.41545983102154L798.1176470588235,9.181888975414395L806.4313725490196,10.332380511853668L814.7450980392157,12.204366740636216L823.0588235294117,12.506190607233401L831.3725490196078,6.451909058439847L839.686274509804,10.351032548553494L848,10.115338630255692L848,15.242105263157894L839.686274509804,15.242105263157894L831.3725490196078,15.242105263157894L823.0588235294117,15.242105263157894L814.7450980392157,15.242105263157894L806.4313725490196,15.242105263157894L798.1176470588235,15.242105263157894L789.8039215686275,15.242105263157894L781.4901960784314,15.242105263157894L773.1764705882352,15.242105263157894L764.8627450980392,15.242105263157894L756.5490196078431,15.242105263157894L748.2352941176471,15.242105263157894L739.9215686274509,15.242105263157894L731.6078431372549,15.242105263157894L723.2941176470588,15.242105263157894L714.9803921568628,15.242105263157894L706.6666666666667,15.242105263157894L698.3529411764706,15.242105263157894L690.0392156862745,15.242105263157894L681.7254901960785,15.242105263157894L673.4117647058823,15.242105263157894L665.0980392156863,15.242105263157894Z" style="fill: rgb(152, 191, 105);"></path><text x="842" y="9.242105263157894" style="font-size: 10px; fill: rgb(34, 34, 34); font-family: Arial, Helvetica; text-anchor: end;">Jacob</text></g><g title="Ethan" transform="translate(0,557.8105263157895)"><path class="area" d="M764.8627450980392,11.569772112400205L773.1764705882352,11.838948364288203L781.4901960784314,6.878414579495097L789.8039215686275,6.575591296121097L798.1176470588235,5.48446613221796L806.4313725490196,6.263154575179671L814.7450980392157,0L823.0588235294117,6.1958605122076715L848,14.833534166542183L848,15.242105263157894L823.0588235294117,15.242105263157894L814.7450980392157,15.242105263157894L806.4313725490196,15.242105263157894L798.1176470588235,15.242105263157894L789.8039215686275,15.242105263157894L781.4901960784314,15.242105263157894L773.1764705882352,15.242105263157894L764.8627450980392,15.242105263157894Z" style="fill: rgb(147, 191, 105);"></path><text x="842" y="9.242105263157894" style="font-size: 10px; fill: rgb(34, 34, 34); font-family: Arial, Helvetica; text-anchor: end;">Ethan</text></g><g title="Aiden" transform="translate(0,581.0526315789474)"><path class="area" d="M806.4313725490196,8.92751879699248L823.0588235294117,0L823.0588235294117,15.242105263157894L806.4313725490196,15.242105263157894Z" style="fill: rgb(141, 191, 105);"></path><text x="842" y="9.242105263157894" style="font-size: 10px; fill: rgb(34, 34, 34); font-family: Arial, Helvetica; text-anchor: end;">Aiden</text></g><g title="William" transform="translate(0,604.2947368421053)"><path class="area" d="M0,13.36540677029906L8.313725490196079,11.737220863252585L16.627450980392158,8.857902627633552L24.941176470588236,7.141166258975774L33.254901960784316,10.04333622662353L41.568627450980394,5.564396748993925L49.88235294117647,8.94359662274126L58.196078431372555,12.894089797206659L66.50980392156863,4.9588258502327776L74.8235294117647,7.6667560956363925L83.13725490196079,6.878371340645467L91.45098039215686,6.544164759725401L99.76470588235294,11.020247770851416L108.078431372549,11.934317052000315L116.39215686274511,10.885993845182671L124.70588235294117,11.165927562534522L133.01960784313727,11.134506430995028L141.33333333333331,11.988589915568532L149.6470588235294,14.062384597175097L157.9607843137255,12.688424208948158L166.27450980392157,11.457287145900734L174.58823529411765,12.411346958099896L182.90196078431373,12.557026749783002L191.2156862745098,12.791257003077408L199.52941176470588,13.071190720429259L207.84313725490196,14.84505641915884L224.47058823529412,14.83077408664089L232.78431372549022,14.833630553144479L249.41176470588235,12.34850469502091L274.3529411764706,14.65367316341829L282.66666666666663,14.682237828454193L307.6078431372549,14.56512270180699L332.54901960784315,14.576548567821352L349.1764705882353,14.596543833346484L698.3529411764706,12.882663931192297L706.6666666666667,11.991446382072121L714.9803921568628,12.368499960546043L723.2941176470588,10.97740077329756L731.6078431372549,5.444425155843131L739.9215686274509,7.55249743549278L748.2352941176471,4.538925274205004L756.5490196078431,7.789584155290775L764.8627450980392,4.933117651700467L773.1764705882352,5.587248481022646L781.4901960784314,2.19947920776454L789.8039215686275,1.3025487256371822L798.1176470588235,0.9654856782135255L806.4313725490196,1.2282805965438346L814.7450980392157,0.9969068097530194L823.0588235294117,2.6308056498066748L831.3725490196078,1.3225439911623145L839.686274509804,0L848,1.8309950288013894L848,15.242105263157894L839.686274509804,15.242105263157894L831.3725490196078,15.242105263157894L823.0588235294117,15.242105263157894L814.7450980392157,15.242105263157894L806.4313725490196,15.242105263157894L798.1176470588235,15.242105263157894L789.8039215686275,15.242105263157894L781.4901960784314,15.242105263157894L773.1764705882352,15.242105263157894L764.8627450980392,15.242105263157894L756.5490196078431,15.242105263157894L748.2352941176471,15.242105263157894L739.9215686274509,15.242105263157894L731.6078431372549,15.242105263157894L723.2941176470588,15.242105263157894L714.9803921568628,15.242105263157894L706.6666666666667,15.242105263157894L698.3529411764706,15.242105263157894L349.1764705882353,15.242105263157894L332.54901960784315,15.242105263157894L307.6078431372549,15.242105263157894L282.66666666666663,15.242105263157894L274.3529411764706,15.242105263157894L249.41176470588235,15.242105263157894L232.78431372549022,15.242105263157894L224.47058823529412,15.242105263157894L207.84313725490196,15.242105263157894L199.52941176470588,15.242105263157894L191.2156862745098,15.242105263157894L182.90196078431373,15.242105263157894L174.58823529411765,15.242105263157894L166.27450980392157,15.242105263157894L157.9607843137255,15.242105263157894L149.6470588235294,15.242105263157894L141.33333333333331,15.242105263157894L133.01960784313727,15.242105263157894L124.70588235294117,15.242105263157894L116.39215686274511,15.242105263157894L108.078431372549,15.242105263157894L99.76470588235294,15.242105263157894L91.45098039215686,15.242105263157894L83.13725490196079,15.242105263157894L74.8235294117647,15.242105263157894L66.50980392156863,15.242105263157894L58.196078431372555,15.242105263157894L49.88235294117647,15.242105263157894L41.568627450980394,15.242105263157894L33.254901960784316,15.242105263157894L24.941176470588236,15.242105263157894L16.627450980392158,15.242105263157894L8.313725490196079,15.242105263157894L0,15.242105263157894Z" style="fill: rgb(136, 191, 105);"></path><text x="842" y="9.242105263157894" style="font-size: 10px; fill: rgb(34, 34, 34); font-family: Arial, Helvetica; text-anchor: end;">William</text></g><g title="Mason" transform="translate(0,627.5368421052632)"><path class="area" d="M831.3725490196078,12.941252266111967L839.686274509804,1.7763568394002505e-15L848,3.545405299993501L848,15.242105263157894L839.686274509804,15.242105263157894L831.3725490196078,15.242105263157894Z" style="fill: rgb(130, 191, 105);"></path><text x="842" y="9.242105263157894" style="font-size: 10px; fill: rgb(34, 34, 34); font-family: Arial, Helvetica; text-anchor: end;">Mason</text></g><g title="Kimberly" transform="translate(0,650.7789473684211)"><path class="area" d="M490.50980392156856,12.991439334763736L498.8235294117647,0L498.8235294117647,15.242105263157894L490.50980392156856,15.242105263157894Z" style="fill: rgb(125, 191, 105);"></path><text x="842" y="9.242105263157894" style="font-size: 10px; fill: rgb(34, 34, 34); font-family: Arial, Helvetica; text-anchor: end;">Kimberly</text></g><g title="Justin" transform="translate(0,674.021052631579)"><path class="area" d="M648.470588235294,1.7763568394002505e-15L648.470588235294,15.242105263157894Z" style="fill: rgb(119, 191, 105);"></path><text x="842" y="9.242105263157894" style="font-size: 10px; fill: rgb(34, 34, 34); font-family: Arial, Helvetica; text-anchor: end;">Justin</text></g><g title="Angela" transform="translate(0,697.2631578947369)"><path class="area" d="M482.19607843137254,13.455387597914648L490.50980392156856,13.493322155563124L498.8235294117647,0L507.1372549019608,0.5424641743732153L515.4509803921568,10.79238165099159L515.4509803921568,15.242105263157894L507.1372549019608,15.242105263157894L498.8235294117647,15.242105263157894L490.50980392156856,15.242105263157894L482.19607843137254,15.242105263157894Z" style="fill: rgb(114, 191, 105);"></path><text x="842" y="9.242105263157894" style="font-size: 10px; fill: rgb(34, 34, 34); font-family: Arial, Helvetica; text-anchor: end;">Angela</text></g><g title="Amanda" transform="translate(0,720.5052631578948)"><path class="area" d="M573.6470588235294,3.4255639097744375L581.9607843137255,0L590.2745098039215,5.263157894736841L606.9019607843137,12.439097744360902L623.5294117647059,8.70375939849624L631.843137254902,10.77593984962406L640.156862745098,13.37142857142857L648.470588235294,13.073684210526315L656.7843137254902,14.237593984962405L673.4117647058823,14.673684210526314L673.4117647058823,15.242105263157894L656.7843137254902,15.242105263157894L648.470588235294,15.242105263157894L640.156862745098,15.242105263157894L631.843137254902,15.242105263157894L623.5294117647059,15.242105263157894L606.9019607843137,15.242105263157894L590.2745098039215,15.242105263157894L581.9607843137255,15.242105263157894L573.6470588235294,15.242105263157894Z" style="fill: rgb(109, 191, 105);"></path><text x="842" y="9.242105263157894" style="font-size: 10px; fill: rgb(34, 34, 34); font-family: Arial, Helvetica; text-anchor: end;">Amanda</text></g><g title="Joshua" transform="translate(0,743.7473684210527)"><path class="area" d="M581.9607843137255,11.76659249397153L590.2745098039215,7.62779334680235L598.5882352941176,12.295064567486289L615.2156862745098,13.767236772277412L623.5294117647059,6.913277533121677L631.843137254902,14.012598806409265L640.156862745098,10.709648346942005L648.470588235294,3.8691705382330763L656.7843137254902,0L665.0980392156863,2.974003556565215L673.4117647058823,5.953399685309153L681.7254901960785,10.98466952805683L690.0392156862745,13.443682441554088L698.3529411764706,14.039561667302875L706.6666666666667,12.467626877205396L714.9803921568628,11.9553325202268L723.2941176470588,12.748040630498943L731.6078431372549,14.878106641094154L739.9215686274509,13.659385328702971L748.2352941176471,13.618941037362555L756.5490196078431,14.379293714562365L764.8627450980392,13.298082992728592L773.1764705882352,12.990706378541436L781.4901960784314,14.937424935060099L789.8039215686275,8.296472296963884L798.1176470588235,9.555637900695485L806.4313725490196,14.433219436349585L806.4313725490196,15.242105263157894L798.1176470588235,15.242105263157894L789.8039215686275,15.242105263157894L781.4901960784314,15.242105263157894L773.1764705882352,15.242105263157894L764.8627450980392,15.242105263157894L756.5490196078431,15.242105263157894L748.2352941176471,15.242105263157894L739.9215686274509,15.242105263157894L731.6078431372549,15.242105263157894L723.2941176470588,15.242105263157894L714.9803921568628,15.242105263157894L706.6666666666667,15.242105263157894L698.3529411764706,15.242105263157894L690.0392156862745,15.242105263157894L681.7254901960785,15.242105263157894L673.4117647058823,15.242105263157894L665.0980392156863,15.242105263157894L656.7843137254902,15.242105263157894L648.470588235294,15.242105263157894L640.156862745098,15.242105263157894L631.843137254902,15.242105263157894L623.5294117647059,15.242105263157894L615.2156862745098,15.242105263157894L598.5882352941176,15.242105263157894L590.2745098039215,15.242105263157894L581.9607843137255,15.242105263157894Z" style="fill: rgb(105, 191, 107);"></path><text x="842" y="9.242105263157894" style="font-size: 10px; fill: rgb(34, 34, 34); font-family: Arial, Helvetica; text-anchor: end;">Joshua</text></g><g title="Tyler" transform="translate(0,766.9894736842106)"><path class="area" d="M665.0980392156863,14.414097327576146L673.4117647058823,14.43662815575524L681.7254901960785,10.550060294861321L690.0392156862745,0L698.3529411764706,6.184712335161629L706.6666666666667,7.474602248414828L714.9803921568628,9.930462519936203L739.9215686274509,14.752059750262573L739.9215686274509,15.242105263157894L714.9803921568628,15.242105263157894L706.6666666666667,15.242105263157894L698.3529411764706,15.242105263157894L690.0392156862745,15.242105263157894L681.7254901960785,15.242105263157894L673.4117647058823,15.242105263157894L665.0980392156863,15.242105263157894Z" style="fill: rgb(105, 191, 112);"></path><text x="842" y="9.242105263157894" style="font-size: 10px; fill: rgb(34, 34, 34); font-family: Arial, Helvetica; text-anchor: end;">Tyler</text></g><g title="Alexis" transform="translate(0,790.2315789473685)"><path class="area" d="M714.9803921568628,9.057481399834664L723.2941176470588,8.844677137870855L731.6078431372549,0L739.9215686274509,12.063341600073482L748.2352941176471,13.366767704601818L756.5490196078431,13.393368237347294L764.8627450980392,13.326866905483604L773.1764705882352,13.672673831174794L773.1764705882352,15.242105263157894L764.8627450980392,15.242105263157894L756.5490196078431,15.242105263157894L748.2352941176471,15.242105263157894L739.9215686274509,15.242105263157894L731.6078431372549,15.242105263157894L723.2941176470588,15.242105263157894L714.9803921568628,15.242105263157894Z" style="fill: rgb(105, 191, 118);"></path><text x="842" y="9.242105263157894" style="font-size: 10px; fill: rgb(34, 34, 34); font-family: Arial, Helvetica; text-anchor: end;">Alexis</text></g><g title="Mia" transform="translate(0,813.4736842105264)"><path class="area" d="M798.1176470588235,0L798.1176470588235,15.242105263157894Z" style="fill: rgb(105, 191, 123);"></path><text x="842" y="9.242105263157894" style="font-size: 10px; fill: rgb(34, 34, 34); font-family: Arial, Helvetica; text-anchor: end;">Mia</text></g><g title="Jose" transform="translate(0,836.7157894736843)"><path class="area" d="M0,15.008277511961722L8.313725490196079,14.982296650717704L16.627450980392158,14.913014354066984L66.50980392156863,14.544952153110048L74.8235294117647,14.514641148325358L83.13725490196079,14.540622009569377L91.45098039215686,14.389066985645933L99.76470588235294,14.449688995215311L108.078431372549,14.315454545454545L116.39215686274511,14.302464114832535L124.70588235294117,14.393397129186603L141.33333333333331,14.419377990430622L149.6470588235294,14.380406698564594L714.9803921568628,3.0224401913875614L723.2941176470588,2.5331339712918677L731.6078431372549,2.5591148325358866L739.9215686274509,2.515813397129188L748.2352941176471,1.8359808612440194L756.5490196078431,2.606746411483254L764.8627450980392,1.6108133971291867L773.1764705882352,2.6197368421052634L781.4901960784314,0L789.8039215686275,3.100382775119618L798.1176470588235,3.7412440191387564L806.4313725490196,4.074665071770335L814.7450980392157,5.035956937799044L823.0588235294117,5.442990430622011L823.0588235294117,15.242105263157894L814.7450980392157,15.242105263157894L806.4313725490196,15.242105263157894L798.1176470588235,15.242105263157894L789.8039215686275,15.242105263157894L781.4901960784314,15.242105263157894L773.1764705882352,15.242105263157894L764.8627450980392,15.242105263157894L756.5490196078431,15.242105263157894L748.2352941176471,15.242105263157894L739.9215686274509,15.242105263157894L731.6078431372549,15.242105263157894L723.2941176470588,15.242105263157894L714.9803921568628,15.242105263157894L149.6470588235294,15.242105263157894L141.33333333333331,15.242105263157894L124.70588235294117,15.242105263157894L116.39215686274511,15.242105263157894L108.078431372549,15.242105263157894L99.76470588235294,15.242105263157894L91.45098039215686,15.242105263157894L83.13725490196079,15.242105263157894L74.8235294117647,15.242105263157894L66.50980392156863,15.242105263157894L16.627450980392158,15.242105263157894L8.313725490196079,15.242105263157894L0,15.242105263157894Z" style="fill: rgb(105, 191, 129);"></path><text x="842" y="9.242105263157894" style="font-size: 10px; fill: rgb(34, 34, 34); font-family: Arial, Helvetica; text-anchor: end;">Jose</text></g><g title="Angel" transform="translate(0,859.9578947368421)"><path class="area" d="M789.8039215686275,0.8610044194455604L798.1176470588235,0.3025150662916829L806.4313725490196,0L806.4313725490196,15.242105263157894L798.1176470588235,15.242105263157894L789.8039215686275,15.242105263157894Z" style="fill: rgb(105, 191, 134);"></path><text x="842" y="9.242105263157894" style="font-size: 10px; fill: rgb(34, 34, 34); font-family: Arial, Helvetica; text-anchor: end;">Angel</text></g><g title="Anthony" transform="translate(0,883.2)"><path class="area" d="M756.5490196078431,12.926390754333905L764.8627450980392,13.098260190535687L773.1764705882352,13.098260190535687L781.4901960784314,12.96257379353428L789.8039215686275,13.224900827736999L798.1176470588235,12.736429798531937L806.4313725490196,0L814.7450980392157,7.788399187880681L823.0588235294117,12.510285803529595L839.686274509804,13.505319381539902L839.686274509804,15.242105263157894L823.0588235294117,15.242105263157894L814.7450980392157,15.242105263157894L806.4313725490196,15.242105263157894L798.1176470588235,15.242105263157894L789.8039215686275,15.242105263157894L781.4901960784314,15.242105263157894L773.1764705882352,15.242105263157894L764.8627450980392,15.242105263157894L756.5490196078431,15.242105263157894Z" style="fill: rgb(105, 191, 139);"></path><text x="842" y="9.242105263157894" style="font-size: 10px; fill: rgb(34, 34, 34); font-family: Arial, Helvetica; text-anchor: end;">Anthony</text></g><g title="Barbara" transform="translate(0,906.4421052631579)"><path class="area" d="M157.9607843137255,14.996716193817406L166.27450980392157,14.95797055128996L174.58823529411765,14.98810605103353L182.90196078431373,8.952395959535895L191.2156862745098,9.621834560982316L199.52941176470588,14.105566415686157L207.84313725490196,10.39674741153123L216.156862745098,13.681516883580226L224.47058823529412,9.53358059744758L232.78431372549022,0.9492682419224163L241.09803921568627,0.5984049234794373L249.41176470588235,3.1771426872505355L257.7254901960784,2.684212012873589L266.03921568627453,0L274.3529411764706,1.8640959127093257L282.66666666666663,11.970251005284712L290.98039215686276,3.2524814366094574L299.2941176470588,4.343817034465841L299.2941176470588,15.242105263157894L290.98039215686276,15.242105263157894L282.66666666666663,15.242105263157894L274.3529411764706,15.242105263157894L266.03921568627453,15.242105263157894L257.7254901960784,15.242105263157894L249.41176470588235,15.242105263157894L241.09803921568627,15.242105263157894L232.78431372549022,15.242105263157894L224.47058823529412,15.242105263157894L216.156862745098,15.242105263157894L207.84313725490196,15.242105263157894L199.52941176470588,15.242105263157894L191.2156862745098,15.242105263157894L182.90196078431373,15.242105263157894L174.58823529411765,15.242105263157894L166.27450980392157,15.242105263157894L157.9607843137255,15.242105263157894Z" style="fill: rgb(105, 191, 145);"></path><text x="842" y="9.242105263157894" style="font-size: 10px; fill: rgb(34, 34, 34); font-family: Arial, Helvetica; text-anchor: end;">Barbara</text></g><g title="Susan" transform="translate(0,929.6842105263158)"><path class="area" d="M332.54901960784315,14.920684619428705L349.1764705882353,13.048882047123422L357.4901960784314,12.305534614102665L365.80392156862746,12.893644832195394L374.11764705882354,5.463155833044123L382.4313725490196,1.4856997556894136L390.7450980392157,4.761603034811683L399.05882352941177,1.7763568394002505e-15L407.37254901960785,11.01388137707329L415.6862745098039,10.859639272497361L424,11.553231187912983L432.313725490196,14.975415688794357L432.313725490196,15.242105263157894L424,15.242105263157894L415.6862745098039,15.242105263157894L407.37254901960785,15.242105263157894L399.05882352941177,15.242105263157894L390.7450980392157,15.242105263157894L382.4313725490196,15.242105263157894L374.11764705882354,15.242105263157894L365.80392156862746,15.242105263157894L357.4901960784314,15.242105263157894L349.1764705882353,15.242105263157894L332.54901960784315,15.242105263157894Z" style="fill: rgb(105, 191, 150);"></path><text x="842" y="9.242105263157894" style="font-size: 10px; fill: rgb(34, 34, 34); font-family: Arial, Helvetica; text-anchor: end;">Susan</text></g><g title="Karen" transform="translate(0,952.9263157894737)"><path class="area" d="M390.7450980392157,14.544471026049973L415.6862745098039,0L432.313725490196,13.55334928229665L432.313725490196,15.242105263157894L415.6862745098039,15.242105263157894L390.7450980392157,15.242105263157894Z" style="fill: rgb(105, 191, 156);"></path><text x="842" y="9.242105263157894" style="font-size: 10px; fill: rgb(34, 34, 34); font-family: Arial, Helvetica; text-anchor: end;">Karen</text></g><g title="Daniel" transform="translate(0,976.1684210526316)"><path class="area" d="M698.3529411764706,0L706.6666666666667,0.3249979408615431L714.9803921568628,1.216506053867061L723.2941176470588,1.9678774400790697L731.6078431372549,2.3793427230046937L739.9215686274509,2.2749855860308053L748.2352941176471,2.3077835433654563L756.5490196078431,2.8265875957499382L764.8627450980392,2.933926365208796L773.1764705882352,3.2231447162507205L781.4901960784314,2.820624330780001L789.8039215686275,3.5809406144469147L798.1176470588235,0.790132608516597L806.4313725490196,0.6440326167531492L814.7450980392157,4.069928341981715L823.0588235294117,5.1343711391153946L823.0588235294117,15.242105263157894L814.7450980392157,15.242105263157894L806.4313725490196,15.242105263157894L798.1176470588235,15.242105263157894L789.8039215686275,15.242105263157894L781.4901960784314,15.242105263157894L773.1764705882352,15.242105263157894L764.8627450980392,15.242105263157894L756.5490196078431,15.242105263157894L748.2352941176471,15.242105263157894L739.9215686274509,15.242105263157894L731.6078431372549,15.242105263157894L723.2941176470588,15.242105263157894L714.9803921568628,15.242105263157894L706.6666666666667,15.242105263157894L698.3529411764706,15.242105263157894Z" style="fill: rgb(105, 191, 161);"></path><text x="842" y="9.242105263157894" style="font-size: 10px; fill: rgb(34, 34, 34); font-family: Arial, Helvetica; text-anchor: end;">Daniel</text></g><g title="Alexander" transform="translate(0,999.4105263157895)"><path class="area" d="M814.7450980392157,6.28912096272218L823.0588235294117,0L831.3725490196078,9.139922078520875L839.686274509804,7.677801599926228L848,14.033686054821679L848,15.242105263157894L839.686274509804,15.242105263157894L831.3725490196078,15.242105263157894L823.0588235294117,15.242105263157894L814.7450980392157,15.242105263157894Z" style="fill: rgb(105, 191, 166);"></path><text x="842" y="9.242105263157894" style="font-size: 10px; fill: rgb(34, 34, 34); font-family: Arial, Helvetica; text-anchor: end;">Alexander</text></g><g title="Liam" transform="translate(0,1022.6526315789474)"><path class="area" d="M839.686274509804,12.457813407691415L848,0L848,15.242105263157894L839.686274509804,15.242105263157894Z" style="fill: rgb(105, 191, 172);"></path><text x="842" y="9.242105263157894" style="font-size: 10px; fill: rgb(34, 34, 34); font-family: Arial, Helvetica; text-anchor: end;">Liam</text></g><g title="Patricia" transform="translate(0,1045.8947368421054)"><path class="area" d="M232.78431372549022,14.612914217790397L241.09803921568627,14.79842039226045L249.41176470588235,12.853474212507429L257.7254901960784,12.82096282110546L266.03921568627453,13.450153866472958L274.3529411764706,13.211099517929075L282.66666666666663,13.696857954170243L290.98039215686276,14.108031433665719L299.2941176470588,9.101277157762663L340.8627450980392,1.7763568394002505e-15L349.1764705882353,1.0116780030377068L357.4901960784314,11.378986990688766L365.80392156862746,11.45930925179951L374.11764705882354,11.564493165158819L374.11764705882354,15.242105263157894L365.80392156862746,15.242105263157894L357.4901960784314,15.242105263157894L349.1764705882353,15.242105263157894L340.8627450980392,15.242105263157894L299.2941176470588,15.242105263157894L290.98039215686276,15.242105263157894L282.66666666666663,15.242105263157894L274.3529411764706,15.242105263157894L266.03921568627453,15.242105263157894L257.7254901960784,15.242105263157894L249.41176470588235,15.242105263157894L241.09803921568627,15.242105263157894L232.78431372549022,15.242105263157894Z" style="fill: rgb(105, 191, 177);"></path><text x="842" y="9.242105263157894" style="font-size: 10px; fill: rgb(34, 34, 34); font-family: Arial, Helvetica; text-anchor: end;">Patricia</text></g><g title="Matthew" transform="translate(0,1069.1368421052632)"><path class="area" d="M573.6470588235294,11.704005715646582L581.9607843137255,13.742033817575614L590.2745098039215,9.779776137175517L598.5882352941176,5.9313169802333885L606.9019607843137,0L615.2156862745098,1.3414432007620842L623.5294117647059,6.734803524648726L631.843137254902,6.21408906882591L640.156862745098,14.135155989521314L648.470588235294,12.114370088116218L656.7843137254902,14.67656108597285L665.0980392156863,14.786911169326029L690.0392156862745,14.473103119790427L714.9803921568628,14.580004763038819L723.2941176470588,11.210878780662062L731.6078431372549,14.552417242200523L739.9215686274509,9.176299118837818L748.2352941176471,11.145358418671112L756.5490196078431,12.079885687068348L764.8627450980392,11.831597999523696L773.1764705882352,11.024663015003572L789.8039215686275,12.84543939033103L798.1176470588235,13.200628721124076L806.4313725490196,13.297185044058109L806.4313725490196,15.242105263157894L798.1176470588235,15.242105263157894L789.8039215686275,15.242105263157894L773.1764705882352,15.242105263157894L764.8627450980392,15.242105263157894L756.5490196078431,15.242105263157894L748.2352941176471,15.242105263157894L739.9215686274509,15.242105263157894L731.6078431372549,15.242105263157894L723.2941176470588,15.242105263157894L714.9803921568628,15.242105263157894L690.0392156862745,15.242105263157894L665.0980392156863,15.242105263157894L656.7843137254902,15.242105263157894L648.470588235294,15.242105263157894L640.156862745098,15.242105263157894L631.843137254902,15.242105263157894L623.5294117647059,15.242105263157894L615.2156862745098,15.242105263157894L606.9019607843137,15.242105263157894L598.5882352941176,15.242105263157894L590.2745098039215,15.242105263157894L581.9607843137255,15.242105263157894L573.6470588235294,15.242105263157894Z" style="fill: rgb(105, 191, 183);"></path><text x="842" y="9.242105263157894" style="font-size: 10px; fill: rgb(34, 34, 34); font-family: Arial, Helvetica; text-anchor: end;">Matthew</text></g><g title="Ryan" transform="translate(0,1092.378947368421)"><path class="area" d="M781.4901960784314,12.407017543859649L789.8039215686275,5.305263157894737L798.1176470588235,10.329824561403509L814.7450980392157,0L823.0588235294117,1.571929824561403L831.3725490196078,2.6385964912280695L831.3725490196078,15.242105263157894L823.0588235294117,15.242105263157894L814.7450980392157,15.242105263157894L798.1176470588235,15.242105263157894L789.8039215686275,15.242105263157894L781.4901960784314,15.242105263157894Z" style="fill: rgb(105, 191, 188);"></path><text x="842" y="9.242105263157894" style="font-size: 10px; fill: rgb(34, 34, 34); font-family: Arial, Helvetica; text-anchor: end;">Ryan</text></g><g title="Deborah" transform="translate(0,1115.621052631579)"><path class="area" d="M357.4901960784314,6.439187358916479L365.80392156862746,1.1595010098609961L374.11764705882354,1.7763568394002505e-15L382.4313725490196,4.675851253415708L390.7450980392157,13.182872757514554L390.7450980392157,15.242105263157894L382.4313725490196,15.242105263157894L374.11764705882354,15.242105263157894L365.80392156862746,15.242105263157894L357.4901960784314,15.242105263157894Z" style="fill: rgb(105, 188, 191);"></path><text x="842" y="9.242105263157894" style="font-size: 10px; fill: rgb(34, 34, 34); font-family: Arial, Helvetica; text-anchor: end;">Deborah</text></g><g title="Jasmine" transform="translate(0,1138.863157894737)"><path class="area" d="M698.3529411764706,0L723.2941176470588,4.632404540763675L723.2941176470588,15.242105263157894L698.3529411764706,15.242105263157894Z" style="fill: rgb(105, 183, 191);"></path><text x="842" y="9.242105263157894" style="font-size: 10px; fill: rgb(34, 34, 34); font-family: Arial, Helvetica; text-anchor: end;">Jasmine</text></g><g title="Kayla" transform="translate(0,1162.1052631578948)"><path class="area" d="M739.9215686274509,5.785324625432192L748.2352941176471,0L764.8627450980392,1.2238186707645031L764.8627450980392,15.242105263157894L748.2352941176471,15.242105263157894L739.9215686274509,15.242105263157894Z" style="fill: rgb(105, 177, 191);"></path><text x="842" y="9.242105263157894" style="font-size: 10px; fill: rgb(34, 34, 34); font-family: Arial, Helvetica; text-anchor: end;">Kayla</text></g><g title="Katherine" transform="translate(0,1185.3473684210526)"><path class="area" d="M773.1764705882352,0.5751737835153925L798.1176470588235,0L798.1176470588235,15.242105263157894L773.1764705882352,15.242105263157894Z" style="fill: rgb(105, 172, 191);"></path><text x="842" y="9.242105263157894" style="font-size: 10px; fill: rgb(34, 34, 34); font-family: Arial, Helvetica; text-anchor: end;">Katherine</text></g><g title="Donna" transform="translate(0,1208.5894736842106)"><path class="area" d="M407.37254901960785,5.477293574555178L415.6862745098039,0L415.6862745098039,15.242105263157894L407.37254901960785,15.242105263157894Z" style="fill: rgb(105, 166, 191);"></path><text x="842" y="9.242105263157894" style="font-size: 10px; fill: rgb(34, 34, 34); font-family: Arial, Helvetica; text-anchor: end;">Donna</text></g><g title="Sarah" transform="translate(0,1231.8315789473686)"><path class="area" d="M673.4117647058823,11.54766120599512L681.7254901960785,11.971613802718718L690.0392156862745,0L706.6666666666667,13.647235970721505L706.6666666666667,15.242105263157894L690.0392156862745,15.242105263157894L681.7254901960785,15.242105263157894L673.4117647058823,15.242105263157894Z" style="fill: rgb(105, 161, 191);"></path><text x="842" y="9.242105263157894" style="font-size: 10px; fill: rgb(34, 34, 34); font-family: Arial, Helvetica; text-anchor: end;">Sarah</text></g><g title="Ava" transform="translate(0,1255.0736842105264)"><path class="area" d="M789.8039215686275,13.708560114196251L798.1176470588235,4.667311322926739L806.4313725490196,0L814.7450980392157,3.713846295528848L823.0588235294117,13.481862135654096L831.3725490196078,12.275028779297324L839.686274509804,14.041939494405304L848,15.122088686282636L848,15.242105263157894L839.686274509804,15.242105263157894L831.3725490196078,15.242105263157894L823.0588235294117,15.242105263157894L814.7450980392157,15.242105263157894L806.4313725490196,15.242105263157894L798.1176470588235,15.242105263157894L789.8039215686275,15.242105263157894Z" style="fill: rgb(105, 156, 191);"></path><text x="842" y="9.242105263157894" style="font-size: 10px; fill: rgb(34, 34, 34); font-family: Arial, Helvetica; text-anchor: end;">Ava</text></g><g title="Jayden" transform="translate(0,1278.3157894736842)"><path class="area" d="M814.7450980392157,2.6720727745289157L823.0588235294117,0L831.3725490196078,0.1881741390513323L839.686274509804,3.6505782975958407L848,4.412683560753736L848,15.242105263157894L839.686274509804,15.242105263157894L831.3725490196078,15.242105263157894L823.0588235294117,15.242105263157894L814.7450980392157,15.242105263157894Z" style="fill: rgb(105, 150, 191);"></path><text x="842" y="9.242105263157894" style="font-size: 10px; fill: rgb(34, 34, 34); font-family: Arial, Helvetica; text-anchor: end;">Jayden</text></g><g title="Brittany" transform="translate(0,1301.5578947368422)"><path class="area" d="M656.7843137254902,0.010264043948255974L665.0980392156863,1.7763568394002505e-15L673.4117647058823,11.746171894382421L681.7254901960785,14.642685096579832L698.3529411764706,14.774064859117491L706.6666666666667,14.843860357965621L706.6666666666667,15.242105263157894L698.3529411764706,15.242105263157894L681.7254901960785,15.242105263157894L673.4117647058823,15.242105263157894L665.0980392156863,15.242105263157894L656.7843137254902,15.242105263157894Z" style="fill: rgb(105, 145, 191);"></path><text x="842" y="9.242105263157894" style="font-size: 10px; fill: rgb(34, 34, 34); font-family: Arial, Helvetica; text-anchor: end;">Brittany</text></g><g title="Taylor" transform="translate(0,1324.8000000000002)"><path class="area" d="M698.3529411764706,10.295681428525217L706.6666666666667,1.7763568394002505e-15L714.9803921568628,10.539255329473036L723.2941176470588,10.061475754536927L731.6078431372549,14.520751787273962L739.9215686274509,14.192863843690356L756.5490196078431,14.633170510788341L756.5490196078431,15.242105263157894L739.9215686274509,15.242105263157894L731.6078431372549,15.242105263157894L723.2941176470588,15.242105263157894L714.9803921568628,15.242105263157894L706.6666666666667,15.242105263157894L698.3529411764706,15.242105263157894Z" style="fill: rgb(105, 139, 191);"></path><text x="842" y="9.242105263157894" style="font-size: 10px; fill: rgb(34, 34, 34); font-family: Arial, Helvetica; text-anchor: end;">Taylor</text></g><g title="George" transform="translate(0,1348.042105263158)"><path class="area" d="M0,14.181784897025171L24.941176470588236,11.464713958810067L33.254901960784316,10.86828375286041L41.568627450980394,9.542883295194507L108.078431372549,7.886132723112128L124.70588235294117,6.8920823798627L133.01960784313727,6.825812356979405L141.33333333333331,3.7773913043478267L149.6470588235294,0L157.9607843137255,2.3857208237986267L166.27450980392157,2.650800915331807L174.58823529411765,4.175011441647596L182.90196078431373,2.1206407322654464L191.2156862745098,5.235331807780321L191.2156862745098,15.242105263157894L182.90196078431373,15.242105263157894L174.58823529411765,15.242105263157894L166.27450980392157,15.242105263157894L157.9607843137255,15.242105263157894L149.6470588235294,15.242105263157894L141.33333333333331,15.242105263157894L133.01960784313727,15.242105263157894L124.70588235294117,15.242105263157894L108.078431372549,15.242105263157894L41.568627450980394,15.242105263157894L33.254901960784316,15.242105263157894L24.941176470588236,15.242105263157894L0,15.242105263157894Z" style="fill: rgb(105, 134, 191);"></path><text x="842" y="9.242105263157894" style="font-size: 10px; fill: rgb(34, 34, 34); font-family: Arial, Helvetica; text-anchor: end;">George</text></g><g title="Helen" transform="translate(0,1371.2842105263157)"><path class="area" d="M0,8.097100376151408L8.313725490196079,9.435180523057785L16.627450980392158,11.896904895891952L24.941176470588236,10.430163196398423L33.254901960784316,1.9041909782898436L41.568627450980394,0.7290821313271927L49.88235294117647,0.8234339365577696L58.196078431372555,0L66.50980392156863,13.286449663833189L74.8235294117647,11.339371501347628L83.13725490196079,13.243562479637472L141.33333333333331,14.367206705565263L149.6470588235294,14.264277463495542L157.9607843137255,14.307164647691259L199.52941176470588,14.555910316026418L199.52941176470588,15.242105263157894L157.9607843137255,15.242105263157894L149.6470588235294,15.242105263157894L141.33333333333331,15.242105263157894L83.13725490196079,15.242105263157894L74.8235294117647,15.242105263157894L66.50980392156863,15.242105263157894L58.196078431372555,15.242105263157894L49.88235294117647,15.242105263157894L41.568627450980394,15.242105263157894L33.254901960784316,15.242105263157894L24.941176470588236,15.242105263157894L16.627450980392158,15.242105263157894L8.313725490196079,15.242105263157894L0,15.242105263157894Z" style="fill: rgb(105, 129, 191);"></path><text x="842" y="9.242105263157894" style="font-size: 10px; fill: rgb(34, 34, 34); font-family: Arial, Helvetica; text-anchor: end;">Helen</text></g><g title="Shirley" transform="translate(0,1394.5263157894738)"><path class="area" d="M199.52941176470588,14.765955264073863L207.84313725490196,0L216.156862745098,11.658380200414017L224.47058823529412,14.991430194002234L224.47058823529412,15.242105263157894L216.156862745098,15.242105263157894L207.84313725490196,15.242105263157894L199.52941176470588,15.242105263157894Z" style="fill: rgb(105, 123, 191);"></path><text x="842" y="9.242105263157894" style="font-size: 10px; fill: rgb(34, 34, 34); font-family: Arial, Helvetica; text-anchor: end;">Shirley</text></g><g title="Carol" transform="translate(0,1417.7684210526318)"><path class="area" d="M224.47058823529412,7.848238482384824L232.78431372549022,8.343916702324918L274.3529411764706,4.9154756810726L282.66666666666663,5.452460419341035L290.98039215686276,0L290.98039215686276,15.242105263157894L282.66666666666663,15.242105263157894L274.3529411764706,15.242105263157894L232.78431372549022,15.242105263157894L224.47058823529412,15.242105263157894Z" style="fill: rgb(105, 118, 191);"></path><text x="842" y="9.242105263157894" style="font-size: 10px; fill: rgb(34, 34, 34); font-family: Arial, Helvetica; text-anchor: end;">Carol</text></g><g title="Chloe" transform="translate(0,1441.0105263157895)"><path class="area" d="M814.7450980392157,0L814.7450980392157,15.242105263157894Z" style="fill: rgb(105, 112, 191);"></path><text x="842" y="9.242105263157894" style="font-size: 10px; fill: rgb(34, 34, 34); font-family: Arial, Helvetica; text-anchor: end;">Chloe</text></g><g title="Richard" transform="translate(0,1464.2526315789473)"><path class="area" d="M199.52941176470588,10.05406473931307L207.84313725490196,10.05406473931307L216.156862745098,10.197183098591548L241.09803921568627,0.3577958981961942L249.41176470588235,0L282.66666666666663,3.9357548801581412L282.66666666666663,15.242105263157894L249.41176470588235,15.242105263157894L241.09803921568627,15.242105263157894L216.156862745098,15.242105263157894L207.84313725490196,15.242105263157894L199.52941176470588,15.242105263157894Z" style="fill: rgb(105, 107, 191);"></path><text x="842" y="9.242105263157894" style="font-size: 10px; fill: rgb(34, 34, 34); font-family: Arial, Helvetica; text-anchor: end;">Richard</text></g><g title="Noah" transform="translate(0,1487.4947368421053)"><path class="area" d="M798.1176470588235,5.080701754385965L806.4313725490196,4.657309941520468L823.0588235294117,0L831.3725490196078,5.927485380116959L839.686274509804,5.715789473684211L848,1.905263157894737L848,15.242105263157894L839.686274509804,15.242105263157894L831.3725490196078,15.242105263157894L823.0588235294117,15.242105263157894L806.4313725490196,15.242105263157894L798.1176470588235,15.242105263157894Z" style="fill: rgb(109, 105, 191);"></path><text x="842" y="9.242105263157894" style="font-size: 10px; fill: rgb(34, 34, 34); font-family: Arial, Helvetica; text-anchor: end;">Noah</text></g><g title="Betty" transform="translate(0,1510.7368421052633)"><path class="area" d="M108.078431372549,11.7732773492172L116.39215686274511,9.721515910989595L124.70588235294117,6.067306795126344L133.01960784313727,3.126343998524449L141.33333333333331,10.15511940023218L149.6470588235294,4.17264807039243L157.9607843137255,8.54010350551704L166.27450980392157,1.7763568394002505e-15L174.58823529411765,5.086985862925713L182.90196078431373,11.33024769716499L182.90196078431373,15.242105263157894L174.58823529411765,15.242105263157894L166.27450980392157,15.242105263157894L157.9607843137255,15.242105263157894L149.6470588235294,15.242105263157894L141.33333333333331,15.242105263157894L133.01960784313727,15.242105263157894L124.70588235294117,15.242105263157894L116.39215686274511,15.242105263157894L108.078431372549,15.242105263157894Z" style="fill: rgb(114, 105, 191);"></path><text x="842" y="9.242105263157894" style="font-size: 10px; fill: rgb(34, 34, 34); font-family: Arial, Helvetica; text-anchor: end;">Betty</text></g><g title="Lori" transform="translate(0,1533.9789473684211)"><path class="area" d="M415.6862745098039,12.903045980045398L424,0L432.313725490196,1.8039803621390487L432.313725490196,15.242105263157894L424,15.242105263157894L415.6862745098039,15.242105263157894Z" style="fill: rgb(119, 105, 191);"></path><text x="842" y="9.242105263157894" style="font-size: 10px; fill: rgb(34, 34, 34); font-family: Arial, Helvetica; text-anchor: end;">Lori</text></g><g title="Carter" transform="translate(0,1557.221052631579)"><path class="area" d="M814.7450980392157,10.395897435897435L839.686274509804,0L839.686274509804,15.242105263157894L814.7450980392157,15.242105263157894Z" style="fill: rgb(125, 105, 191);"></path><text x="842" y="9.242105263157894" style="font-size: 10px; fill: rgb(34, 34, 34); font-family: Arial, Helvetica; text-anchor: end;">Carter</text></g><g title="Sharon" transform="translate(0,1580.463157894737)"><path class="area" d="M241.09803921568627,11.069901873327385L249.41176470588235,4.017198929527208L257.7254901960784,0L266.03921568627453,3.2680107047279208L274.3529411764706,11.612417484388939L274.3529411764706,15.242105263157894L266.03921568627453,15.242105263157894L257.7254901960784,15.242105263157894L249.41176470588235,15.242105263157894L241.09803921568627,15.242105263157894Z" style="fill: rgb(130, 105, 191);"></path><text x="842" y="9.242105263157894" style="font-size: 10px; fill: rgb(34, 34, 34); font-family: Arial, Helvetica; text-anchor: end;">Sharon</text></g><g title="Julie" transform="translate(0,1603.705263157895)"><path class="area" d="M399.05882352941177,0L407.37254901960785,10.178568041725935L415.6862745098039,10.762162162162163L415.6862745098039,15.242105263157894L407.37254901960785,15.242105263157894L399.05882352941177,15.242105263157894Z" style="fill: rgb(136, 105, 191);"></path><text x="842" y="9.242105263157894" style="font-size: 10px; fill: rgb(34, 34, 34); font-family: Arial, Helvetica; text-anchor: end;">Julie</text></g><g title="Logan" transform="translate(0,1626.9473684210527)"><path class="area" d="M798.1176470588235,13.399930289299407L806.4313725490196,12.314813523875914L823.0588235294117,0L831.3725490196078,9.564168699895433L831.3725490196078,15.242105263157894L823.0588235294117,15.242105263157894L806.4313725490196,15.242105263157894L798.1176470588235,15.242105263157894Z" style="fill: rgb(141, 105, 191);"></path><text x="842" y="9.242105263157894" style="font-size: 10px; fill: rgb(34, 34, 34); font-family: Arial, Helvetica; text-anchor: end;">Logan</text></g><g title="Samuel" transform="translate(0,1650.1894736842105)"><path class="area" d="M831.3725490196078,0L831.3725490196078,15.242105263157894Z" style="fill: rgb(147, 105, 191);"></path><text x="842" y="9.242105263157894" style="font-size: 10px; fill: rgb(34, 34, 34); font-family: Arial, Helvetica; text-anchor: end;">Samuel</text></g><g title="Elijah" transform="translate(0,1673.4315789473685)"><path class="area" d="M831.3725490196078,0L848,9.697176952533619L848,15.242105263157894L831.3725490196078,15.242105263157894Z" style="fill: rgb(152, 105, 191);"></path><text x="842" y="9.242105263157894" style="font-size: 10px; fill: rgb(34, 34, 34); font-family: Arial, Helvetica; text-anchor: end;">Elijah</text></g><g title="Addison" transform="translate(0,1696.6736842105265)"><path class="area" d="M806.4313725490196,0L823.0588235294117,10.315364167995746L823.0588235294117,15.242105263157894L806.4313725490196,15.242105263157894Z" style="fill: rgb(157, 105, 191);"></path><text x="842" y="9.242105263157894" style="font-size: 10px; fill: rgb(34, 34, 34); font-family: Arial, Helvetica; text-anchor: end;">Addison</text></g><g title="Larry" transform="translate(0,1719.9157894736843)"><path class="area" d="M241.09803921568627,2.2812687347507836L249.41176470588235,0.8277169745555941L257.7254901960784,0L266.03921568627453,0.4441408156151976L266.03921568627453,15.242105263157894L257.7254901960784,15.242105263157894L249.41176470588235,15.242105263157894L241.09803921568627,15.242105263157894Z" style="fill: rgb(163, 105, 191);"></path><text x="842" y="9.242105263157894" style="font-size: 10px; fill: rgb(34, 34, 34); font-family: Arial, Helvetica; text-anchor: end;">Larry</text></g><g title="Austin" transform="translate(0,1743.157894736842)"><path class="area" d="M698.3529411764706,3.744528138943531L706.6666666666667,0L714.9803921568628,4.237777671160581L723.2941176470588,9.32311087655328L731.6078431372549,14.026349373890515L731.6078431372549,15.242105263157894L723.2941176470588,15.242105263157894L714.9803921568628,15.242105263157894L706.6666666666667,15.242105263157894L698.3529411764706,15.242105263157894Z" style="fill: rgb(168, 105, 191);"></path><text x="842" y="9.242105263157894" style="font-size: 10px; fill: rgb(34, 34, 34); font-family: Arial, Helvetica; text-anchor: end;">Austin</text></g><g title="Melissa" transform="translate(0,1766.4)"><path class="area" d="M498.8235294117647,0L507.1372549019608,9.461056149144792L515.4509803921568,9.422855384074222L515.4509803921568,15.242105263157894L507.1372549019608,15.242105263157894L498.8235294117647,15.242105263157894Z" style="fill: rgb(174, 105, 191);"></path><text x="842" y="9.242105263157894" style="font-size: 10px; fill: rgb(34, 34, 34); font-family: Arial, Helvetica; text-anchor: end;">Melissa</text></g><g title="Benjamin" transform="translate(0,1789.642105263158)"><path class="area" d="M848,0L848,15.242105263157894Z" style="fill: rgb(179, 105, 191);"></path><text x="842" y="9.242105263157894" style="font-size: 10px; fill: rgb(34, 34, 34); font-family: Arial, Helvetica; text-anchor: end;">Benjamin</text></g><g title="Dorothy" transform="translate(0,1812.8842105263159)"><path class="area" d="M0,14.966383270139804L8.313725490196079,14.405264828208255L16.627450980392158,15.203407439576408L33.254901960784316,14.598753946115686L41.568627450980394,11.159484875311096L49.88235294117647,10.874088426397634L58.196078431372555,10.932135161769864L66.50980392156863,5.4176953014080755L74.8235294117647,6.1819773171424295L83.13725490196079,1.7763568394002505e-15L91.45098039215686,3.49731580617682L99.76470588235294,0.6046534934607237L108.078431372549,5.335462426297417L116.39215686274511,9.979201256075765L124.70588235294117,14.187589570562395L133.01960784313727,12.983119811588635L133.01960784313727,15.242105263157894L124.70588235294117,15.242105263157894L116.39215686274511,15.242105263157894L108.078431372549,15.242105263157894L99.76470588235294,15.242105263157894L91.45098039215686,15.242105263157894L83.13725490196079,15.242105263157894L74.8235294117647,15.242105263157894L66.50980392156863,15.242105263157894L58.196078431372555,15.242105263157894L49.88235294117647,15.242105263157894L41.568627450980394,15.242105263157894L33.254901960784316,15.242105263157894L16.627450980392158,15.242105263157894L8.313725490196079,15.242105263157894L0,15.242105263157894Z" style="fill: rgb(184, 105, 191);"></path><text x="842" y="9.242105263157894" style="font-size: 10px; fill: rgb(34, 34, 34); font-family: Arial, Helvetica; text-anchor: end;">Dorothy</text></g><g title="Judith" transform="translate(0,1836.1263157894737)"><path class="area" d="M257.7254901960784,0L257.7254901960784,15.242105263157894Z" style="fill: rgb(190, 105, 191);"></path><text x="842" y="9.242105263157894" style="font-size: 10px; fill: rgb(34, 34, 34); font-family: Arial, Helvetica; text-anchor: end;">Judith</text></g><g title="Nicholas" transform="translate(0,1859.3684210526317)"><path class="area" d="M681.7254901960785,4.479758536125258L714.9803921568628,0L723.2941176470588,5.7362761743067345L764.8627450980392,7.702999434069043L764.8627450980392,15.242105263157894L723.2941176470588,15.242105263157894L714.9803921568628,15.242105263157894L681.7254901960785,15.242105263157894Z" style="fill: rgb(191, 105, 186);"></path><text x="842" y="9.242105263157894" style="font-size: 10px; fill: rgb(34, 34, 34); font-family: Arial, Helvetica; text-anchor: end;">Nicholas</text></g><g title="Owen" transform="translate(0,1882.6105263157897)"><path class="area" d="M831.3725490196078,0L831.3725490196078,15.242105263157894Z" style="fill: rgb(191, 105, 181);"></path><text x="842" y="9.242105263157894" style="font-size: 10px; fill: rgb(34, 34, 34); font-family: Arial, Helvetica; text-anchor: end;">Owen</text></g><g title="Wyatt" transform="translate(0,1905.8526315789475)"><path class="area" d="M823.0588235294117,4.5726315789473695L831.3725490196078,0L831.3725490196078,15.242105263157894L823.0588235294117,15.242105263157894Z" style="fill: rgb(191, 105, 175);"></path><text x="842" y="9.242105263157894" style="font-size: 10px; fill: rgb(34, 34, 34); font-family: Arial, Helvetica; text-anchor: end;">Wyatt</text></g><g title="Margaret" transform="translate(0,1929.0947368421052)"><path class="area" d="M8.313725490196079,14.401161524500907L33.254901960784316,0L33.254901960784316,15.242105263157894L8.313725490196079,15.242105263157894Z" style="fill: rgb(191, 105, 170);"></path><text x="842" y="9.242105263157894" style="font-size: 10px; fill: rgb(34, 34, 34); font-family: Arial, Helvetica; text-anchor: end;">Margaret</text></g><g title="Andrew" transform="translate(0,1952.3368421052633)"><path class="area" d="M640.156862745098,0L640.156862745098,15.242105263157894Z" style="fill: rgb(191, 105, 165);"></path><text x="842" y="9.242105263157894" style="font-size: 10px; fill: rgb(34, 34, 34); font-family: Arial, Helvetica; text-anchor: end;">Andrew</text></g><g title="Nancy" transform="translate(0,1975.5789473684213)"><path class="area" d="M241.09803921568627,0L241.09803921568627,15.242105263157894Z" style="fill: rgb(191, 105, 159);"></path><text x="842" y="9.242105263157894" style="font-size: 10px; fill: rgb(34, 34, 34); font-family: Arial, Helvetica; text-anchor: end;">Nancy</text></g><g title="Sandra" transform="translate(0,1998.821052631579)"><path class="area" d="M266.03921568627453,0L282.66666666666663,2.124657097288676L282.66666666666663,15.242105263157894L266.03921568627453,15.242105263157894Z" style="fill: rgb(191, 105, 154);"></path><text x="842" y="9.242105263157894" style="font-size: 10px; fill: rgb(34, 34, 34); font-family: Arial, Helvetica; text-anchor: end;">Sandra</text></g><g title="Joan" transform="translate(0,2022.0631578947368)"><path class="area" d="M174.58823529411765,11.52720233033598L182.90196078431373,0L191.2156862745098,11.72630855240542L199.52941176470588,11.16566734815726L207.84313725490196,11.98305078612654L216.156862745098,12.404841598668378L216.156862745098,15.242105263157894L207.84313725490196,15.242105263157894L199.52941176470588,15.242105263157894L191.2156862745098,15.242105263157894L182.90196078431373,15.242105263157894L174.58823529411765,15.242105263157894Z" style="fill: rgb(191, 105, 148);"></path><text x="842" y="9.242105263157894" style="font-size: 10px; fill: rgb(34, 34, 34); font-family: Arial, Helvetica; text-anchor: end;">Joan</text></g><g title="Alyssa" transform="translate(0,2045.3052631578948)"><path class="area" d="M781.4901960784314,0.6513720197930706L789.8039215686275,0L789.8039215686275,15.242105263157894L781.4901960784314,15.242105263157894Z" style="fill: rgb(191, 105, 143);"></path><text x="842" y="9.242105263157894" style="font-size: 10px; fill: rgb(34, 34, 34); font-family: Arial, Helvetica; text-anchor: end;">Alyssa</text></g><g title="Joe" transform="translate(0,2068.547368421053)"><path class="area" d="M133.01960784313727,3.8959641255605373L157.9607843137255,1.9821571866886956L166.27450980392157,3.5542128864762805L174.58823529411765,1.025253717252772L182.90196078431373,0.6835024781685153L191.2156862745098,1.640405947604437L199.52941176470588,1.9821571866886956L207.84313725490196,0.5468019825348129L216.156862745098,2.8707104083077652L224.47058823529412,0L232.78431372549022,1.7771064432381394L241.09803921568627,0.6835024781685153L249.41176470588235,0.5468019825348129L249.41176470588235,15.242105263157894L241.09803921568627,15.242105263157894L232.78431372549022,15.242105263157894L224.47058823529412,15.242105263157894L216.156862745098,15.242105263157894L207.84313725490196,15.242105263157894L199.52941176470588,15.242105263157894L191.2156862745098,15.242105263157894L182.90196078431373,15.242105263157894L174.58823529411765,15.242105263157894L166.27450980392157,15.242105263157894L157.9607843137255,15.242105263157894L133.01960784313727,15.242105263157894Z" style="fill: rgb(191, 105, 138);"></path><text x="842" y="9.242105263157894" style="font-size: 10px; fill: rgb(34, 34, 34); font-family: Arial, Helvetica; text-anchor: end;">Joe</text></g><g title="Isaiah" transform="translate(0,2091.789473684211)"><path class="area" d="M814.7450980392157,0L814.7450980392157,15.242105263157894Z" style="fill: rgb(191, 105, 132);"></path><text x="842" y="9.242105263157894" style="font-size: 10px; fill: rgb(34, 34, 34); font-family: Arial, Helvetica; text-anchor: end;">Isaiah</text></g><g title="Ruth" transform="translate(0,2115.0315789473684)"><path class="area" d="M33.254901960784316,0L33.254901960784316,15.242105263157894Z" style="fill: rgb(191, 105, 127);"></path><text x="842" y="9.242105263157894" style="font-size: 10px; fill: rgb(34, 34, 34); font-family: Arial, Helvetica; text-anchor: end;">Ruth</text></g><g title="Megan" transform="translate(0,2138.2736842105264)"><path class="area" d="M698.3529411764706,0L698.3529411764706,15.242105263157894Z" style="fill: rgb(191, 105, 121);"></path><text x="842" y="9.242105263157894" style="font-size: 10px; fill: rgb(34, 34, 34); font-family: Arial, Helvetica; text-anchor: end;">Megan</text></g><g title="Cindy" transform="translate(0,2161.5157894736844)"><path class="area" d="M390.7450980392157,0L390.7450980392157,15.242105263157894Z" style="fill: rgb(191, 105, 116);"></path><text x="842" y="9.242105263157894" style="font-size: 10px; fill: rgb(34, 34, 34); font-family: Arial, Helvetica; text-anchor: end;">Cindy</text></g><g title="Brenda" transform="translate(0,2184.757894736842)"><path class="area" d="M424,0L424,15.242105263157894Z" style="fill: rgb(191, 105, 110);"></path><text x="842" y="9.242105263157894" style="font-size: 10px; fill: rgb(34, 34, 34); font-family: Arial, Helvetica; text-anchor: end;">Brenda</text></g></svg>